%TF.GenerationSoftware,KiCad,Pcbnew,(6.0.5)*%
%TF.CreationDate,2024-01-21T09:52:01+01:00*%
%TF.ProjectId,pmod_usb_serial,706d6f64-5f75-4736-925f-73657269616c,rev?*%
%TF.SameCoordinates,Original*%
%TF.FileFunction,Copper,L1,Top*%
%TF.FilePolarity,Positive*%
%FSLAX46Y46*%
G04 Gerber Fmt 4.6, Leading zero omitted, Abs format (unit mm)*
G04 Created by KiCad (PCBNEW (6.0.5)) date 2024-01-21 09:52:01*
%MOMM*%
%LPD*%
G01*
G04 APERTURE LIST*
G04 Aperture macros list*
%AMRoundRect*
0 Rectangle with rounded corners*
0 $1 Rounding radius*
0 $2 $3 $4 $5 $6 $7 $8 $9 X,Y pos of 4 corners*
0 Add a 4 corners polygon primitive as box body*
4,1,4,$2,$3,$4,$5,$6,$7,$8,$9,$2,$3,0*
0 Add four circle primitives for the rounded corners*
1,1,$1+$1,$2,$3*
1,1,$1+$1,$4,$5*
1,1,$1+$1,$6,$7*
1,1,$1+$1,$8,$9*
0 Add four rect primitives between the rounded corners*
20,1,$1+$1,$2,$3,$4,$5,0*
20,1,$1+$1,$4,$5,$6,$7,0*
20,1,$1+$1,$6,$7,$8,$9,0*
20,1,$1+$1,$8,$9,$2,$3,0*%
G04 Aperture macros list end*
%TA.AperFunction,SMDPad,CuDef*%
%ADD10RoundRect,0.250000X0.262500X0.450000X-0.262500X0.450000X-0.262500X-0.450000X0.262500X-0.450000X0*%
%TD*%
%TA.AperFunction,SMDPad,CuDef*%
%ADD11RoundRect,0.062500X0.062500X-0.337500X0.062500X0.337500X-0.062500X0.337500X-0.062500X-0.337500X0*%
%TD*%
%TA.AperFunction,SMDPad,CuDef*%
%ADD12RoundRect,0.062500X0.337500X-0.062500X0.337500X0.062500X-0.337500X0.062500X-0.337500X-0.062500X0*%
%TD*%
%TA.AperFunction,SMDPad,CuDef*%
%ADD13R,3.350000X3.350000*%
%TD*%
%TA.AperFunction,SMDPad,CuDef*%
%ADD14R,2.500000X0.500000*%
%TD*%
%TA.AperFunction,SMDPad,CuDef*%
%ADD15R,2.500000X2.000000*%
%TD*%
%TA.AperFunction,SMDPad,CuDef*%
%ADD16RoundRect,0.250000X0.475000X-0.250000X0.475000X0.250000X-0.475000X0.250000X-0.475000X-0.250000X0*%
%TD*%
%TA.AperFunction,SMDPad,CuDef*%
%ADD17RoundRect,0.250000X-0.450000X0.262500X-0.450000X-0.262500X0.450000X-0.262500X0.450000X0.262500X0*%
%TD*%
%TA.AperFunction,ComponentPad*%
%ADD18R,1.700000X1.700000*%
%TD*%
%TA.AperFunction,ComponentPad*%
%ADD19O,1.700000X1.700000*%
%TD*%
%TA.AperFunction,SMDPad,CuDef*%
%ADD20RoundRect,0.250000X0.450000X-0.262500X0.450000X0.262500X-0.450000X0.262500X-0.450000X-0.262500X0*%
%TD*%
%TA.AperFunction,SMDPad,CuDef*%
%ADD21RoundRect,0.243750X0.243750X0.456250X-0.243750X0.456250X-0.243750X-0.456250X0.243750X-0.456250X0*%
%TD*%
%TA.AperFunction,SMDPad,CuDef*%
%ADD22RoundRect,0.250000X-0.475000X0.250000X-0.475000X-0.250000X0.475000X-0.250000X0.475000X0.250000X0*%
%TD*%
%TA.AperFunction,ViaPad*%
%ADD23C,0.800000*%
%TD*%
%TA.AperFunction,Conductor*%
%ADD24C,0.250000*%
%TD*%
%TA.AperFunction,Conductor*%
%ADD25C,0.400000*%
%TD*%
%TA.AperFunction,Conductor*%
%ADD26C,1.000000*%
%TD*%
G04 APERTURE END LIST*
D10*
%TO.P,R3,1*%
%TO.N,Net-(D2-Pad2)*%
X135913500Y-103886000D03*
%TO.P,R3,2*%
%TO.N,Net-(PMOD1-Pad6)*%
X134088500Y-103886000D03*
%TD*%
D11*
%TO.P,U1,1,~{DCD}*%
%TO.N,unconnected-(U1-Pad1)*%
X135660000Y-96049000D03*
%TO.P,U1,2,~{RI}/CLK*%
%TO.N,unconnected-(U1-Pad2)*%
X136160000Y-96049000D03*
%TO.P,U1,3,GND*%
%TO.N,GND*%
X136660000Y-96049000D03*
%TO.P,U1,4,D+*%
%TO.N,Net-(J1-Pad3)*%
X137160000Y-96049000D03*
%TO.P,U1,5,D-*%
%TO.N,Net-(J1-Pad2)*%
X137660000Y-96049000D03*
%TO.P,U1,6,VDD*%
%TO.N,Net-(C2-Pad1)*%
X138160000Y-96049000D03*
%TO.P,U1,7,VREGIN*%
%TO.N,+5V*%
X138660000Y-96049000D03*
D12*
%TO.P,U1,8,VBUS*%
X139610000Y-95099000D03*
%TO.P,U1,9,~{RST}*%
%TO.N,Net-(R2-Pad2)*%
X139610000Y-94599000D03*
%TO.P,U1,10,NC*%
%TO.N,unconnected-(U1-Pad10)*%
X139610000Y-94099000D03*
%TO.P,U1,11,~{SUSPEND}*%
%TO.N,unconnected-(U1-Pad11)*%
X139610000Y-93599000D03*
%TO.P,U1,12,SUSPEND*%
%TO.N,unconnected-(U1-Pad12)*%
X139610000Y-93099000D03*
%TO.P,U1,13,CHREN*%
%TO.N,unconnected-(U1-Pad13)*%
X139610000Y-92599000D03*
%TO.P,U1,14,CHR1*%
%TO.N,unconnected-(U1-Pad14)*%
X139610000Y-92099000D03*
D11*
%TO.P,U1,15,CHR0*%
%TO.N,unconnected-(U1-Pad15)*%
X138660000Y-91149000D03*
%TO.P,U1,16,~{WAKEUP}/GPIO.3*%
%TO.N,unconnected-(U1-Pad16)*%
X138160000Y-91149000D03*
%TO.P,U1,17,RS485/GPIO.2*%
%TO.N,unconnected-(U1-Pad17)*%
X137660000Y-91149000D03*
%TO.P,U1,18,~{RXT}/GPIO.1*%
%TO.N,unconnected-(U1-Pad18)*%
X137160000Y-91149000D03*
%TO.P,U1,19,~{TXT}/GPIO.0*%
%TO.N,unconnected-(U1-Pad19)*%
X136660000Y-91149000D03*
%TO.P,U1,20,GPIO.6*%
%TO.N,unconnected-(U1-Pad20)*%
X136160000Y-91149000D03*
%TO.P,U1,21,GPIO.5*%
%TO.N,unconnected-(U1-Pad21)*%
X135660000Y-91149000D03*
D12*
%TO.P,U1,22,GPIO.4*%
%TO.N,unconnected-(U1-Pad22)*%
X134710000Y-92099000D03*
%TO.P,U1,23,~{CTS}*%
%TO.N,Net-(U1-Pad23)*%
X134710000Y-92599000D03*
%TO.P,U1,24,~{RTS}*%
%TO.N,Net-(U1-Pad24)*%
X134710000Y-93099000D03*
%TO.P,U1,25,RXD*%
%TO.N,Net-(U1-Pad25)*%
X134710000Y-93599000D03*
%TO.P,U1,26,TXD*%
%TO.N,Net-(U1-Pad26)*%
X134710000Y-94099000D03*
%TO.P,U1,27,~{DSR}*%
%TO.N,unconnected-(U1-Pad27)*%
X134710000Y-94599000D03*
%TO.P,U1,28,~{DTR}*%
%TO.N,unconnected-(U1-Pad28)*%
X134710000Y-95099000D03*
D13*
%TO.P,U1,29,GND*%
%TO.N,GND*%
X137160000Y-93599000D03*
%TD*%
D14*
%TO.P,J1,1,VBUS*%
%TO.N,+5V*%
X151061000Y-99136000D03*
%TO.P,J1,2,D-*%
%TO.N,Net-(J1-Pad2)*%
X151061000Y-98336000D03*
%TO.P,J1,3,D+*%
%TO.N,Net-(J1-Pad3)*%
X151061000Y-97536000D03*
%TO.P,J1,4,ID*%
%TO.N,unconnected-(J1-Pad4)*%
X151061000Y-96736000D03*
%TO.P,J1,5,GND*%
%TO.N,GND*%
X151061000Y-95936000D03*
D15*
%TO.P,J1,6,Shield*%
X151061000Y-101936000D03*
X151061000Y-93136000D03*
X156561000Y-93136000D03*
X156561000Y-101936000D03*
%TD*%
D16*
%TO.P,C2,1*%
%TO.N,Net-(C2-Pad1)*%
X143764000Y-96581000D03*
%TO.P,C2,2*%
%TO.N,GND*%
X143764000Y-94681000D03*
%TD*%
D17*
%TO.P,R1,1*%
%TO.N,Net-(D1-Pad2)*%
X145923000Y-94718500D03*
%TO.P,R1,2*%
%TO.N,Net-(C2-Pad1)*%
X145923000Y-96543500D03*
%TD*%
D18*
%TO.P,PMOD1,1,IO0*%
%TO.N,Net-(U1-Pad23)*%
X130428000Y-91244000D03*
D19*
%TO.P,PMOD1,2,IO1*%
%TO.N,Net-(U1-Pad24)*%
X130428000Y-93784000D03*
%TO.P,PMOD1,3,IO2*%
%TO.N,Net-(U1-Pad25)*%
X130428000Y-96324000D03*
%TO.P,PMOD1,4,IO3*%
%TO.N,Net-(U1-Pad26)*%
X130428000Y-98864000D03*
%TO.P,PMOD1,5,GND*%
%TO.N,GND*%
X130428000Y-101404000D03*
%TO.P,PMOD1,6,VCC*%
%TO.N,Net-(PMOD1-Pad6)*%
X130428000Y-103944000D03*
%TD*%
D20*
%TO.P,R2,1*%
%TO.N,Net-(C2-Pad1)*%
X141605000Y-96543500D03*
%TO.P,R2,2*%
%TO.N,Net-(R2-Pad2)*%
X141605000Y-94718500D03*
%TD*%
D21*
%TO.P,D2,1,K*%
%TO.N,GND*%
X139875500Y-103886000D03*
%TO.P,D2,2,A*%
%TO.N,Net-(D2-Pad2)*%
X138000500Y-103886000D03*
%TD*%
D22*
%TO.P,C1,1*%
%TO.N,GND*%
X148082000Y-93792000D03*
%TO.P,C1,2*%
%TO.N,+5V*%
X148082000Y-95692000D03*
%TD*%
D21*
%TO.P,D1,1,K*%
%TO.N,GND*%
X148130500Y-91821000D03*
%TO.P,D1,2,A*%
%TO.N,Net-(D1-Pad2)*%
X146255500Y-91821000D03*
%TD*%
D23*
%TO.N,GND*%
X143764000Y-92837000D03*
X136144000Y-97409000D03*
X154006000Y-93136000D03*
X153969000Y-101936000D03*
X141097000Y-90932000D03*
%TD*%
D24*
%TO.N,GND*%
X137160000Y-93599000D02*
X137162672Y-93599000D01*
X136660000Y-94099000D02*
X137160000Y-93599000D01*
X136144000Y-97409000D02*
X136144000Y-101346000D01*
D25*
X143764000Y-92075000D02*
X144843500Y-90995500D01*
X151061000Y-95936000D02*
X151061000Y-93136000D01*
D24*
X139829672Y-90932000D02*
X140843000Y-90932000D01*
D25*
X148082000Y-91869500D02*
X148130500Y-91821000D01*
X148082000Y-93792000D02*
X148082000Y-93091000D01*
X148082000Y-91772500D02*
X148130500Y-91821000D01*
X147574000Y-90424000D02*
X148082000Y-90932000D01*
X137393500Y-101404000D02*
X136086000Y-101404000D01*
D24*
X136660000Y-96893000D02*
X136144000Y-97409000D01*
X136144000Y-101346000D02*
X136086000Y-101404000D01*
D26*
X156561000Y-101936000D02*
X153969000Y-101936000D01*
X153969000Y-101936000D02*
X151061000Y-101936000D01*
D25*
X136086000Y-101404000D02*
X130428000Y-101404000D01*
X148082000Y-93091000D02*
X148082000Y-91869500D01*
D24*
X140843000Y-90932000D02*
X141097000Y-90932000D01*
D25*
X143764000Y-92837000D02*
X143764000Y-94681000D01*
D24*
X136660000Y-96049000D02*
X136660000Y-94099000D01*
X137162672Y-93599000D02*
X139829672Y-90932000D01*
D25*
X143764000Y-92837000D02*
X143764000Y-92075000D01*
X145415000Y-90424000D02*
X147574000Y-90424000D01*
X151061000Y-93136000D02*
X148127000Y-93136000D01*
D26*
X154006000Y-93136000D02*
X151061000Y-93136000D01*
X156561000Y-93136000D02*
X154006000Y-93136000D01*
D25*
X144843500Y-90995500D02*
X145415000Y-90424000D01*
X139875500Y-103886000D02*
X137393500Y-101404000D01*
X144780000Y-90932000D02*
X144843500Y-90995500D01*
X148082000Y-90932000D02*
X148082000Y-91772500D01*
D24*
X136660000Y-96049000D02*
X136660000Y-96893000D01*
D25*
X148127000Y-93136000D02*
X148082000Y-93091000D01*
X141097000Y-90932000D02*
X144780000Y-90932000D01*
%TO.N,+5V*%
X151061000Y-99136000D02*
X148793000Y-99136000D01*
D24*
X148082000Y-95692000D02*
X148021000Y-95631000D01*
X148021000Y-95631000D02*
X139192000Y-95631000D01*
D25*
X148082000Y-98425000D02*
X148082000Y-95692000D01*
D24*
X138660000Y-96049000D02*
X139135000Y-95574000D01*
D25*
X148793000Y-99136000D02*
X148082000Y-98425000D01*
D24*
X139192000Y-95631000D02*
X139135000Y-95574000D01*
X139135000Y-95574000D02*
X139610000Y-95099000D01*
%TO.N,Net-(C2-Pad1)*%
X138160000Y-96049000D02*
X138160000Y-96496327D01*
X138160000Y-96496327D02*
X138751337Y-97087664D01*
X141537664Y-97087664D02*
X143704336Y-97087664D01*
X143764000Y-97028000D02*
X143704336Y-97087664D01*
X141605000Y-96543500D02*
X141605000Y-97020328D01*
X138751337Y-97087664D02*
X141537664Y-97087664D01*
X143764000Y-96581000D02*
X143764000Y-97028000D01*
X145378836Y-97087664D02*
X145923000Y-96543500D01*
X143704336Y-97087664D02*
X145378836Y-97087664D01*
X141605000Y-97020328D02*
X141537664Y-97087664D01*
D25*
%TO.N,Net-(D1-Pad2)*%
X145923000Y-94718500D02*
X145923000Y-92153500D01*
X145923000Y-92153500D02*
X146255500Y-91821000D01*
%TO.N,Net-(D2-Pad2)*%
X135913500Y-103886000D02*
X138000500Y-103886000D01*
D24*
%TO.N,Net-(J1-Pad2)*%
X158135511Y-100611489D02*
X155860022Y-98336000D01*
X158135511Y-103260511D02*
X158135511Y-100611489D01*
X137660000Y-96049000D02*
X137660000Y-96632045D01*
X157637022Y-103759000D02*
X158135511Y-103260511D01*
X137660000Y-96632045D02*
X144786955Y-103759000D01*
X155860022Y-98336000D02*
X151061000Y-98336000D01*
X144786955Y-103759000D02*
X157637022Y-103759000D01*
%TO.N,Net-(J1-Pad3)*%
X158585031Y-100425292D02*
X155695740Y-97536000D01*
X158585031Y-103446709D02*
X158585031Y-100425292D01*
X155695740Y-97536000D02*
X151061000Y-97536000D01*
X157823219Y-104208520D02*
X158585031Y-103446709D01*
X137160000Y-96767763D02*
X144600757Y-104208520D01*
X137160000Y-96049000D02*
X137160000Y-96767763D01*
X144600757Y-104208520D02*
X157823219Y-104208520D01*
%TO.N,Net-(U1-Pad23)*%
X134710000Y-92599000D02*
X131783000Y-92599000D01*
X131783000Y-92599000D02*
X130428000Y-91244000D01*
%TO.N,Net-(U1-Pad24)*%
X134710000Y-93099000D02*
X131113000Y-93099000D01*
X131113000Y-93099000D02*
X130428000Y-93784000D01*
%TO.N,Net-(U1-Pad25)*%
X133153000Y-93599000D02*
X130428000Y-96324000D01*
X134710000Y-93599000D02*
X133153000Y-93599000D01*
%TO.N,Net-(U1-Pad26)*%
X131953000Y-96408672D02*
X131953000Y-98044000D01*
X134710000Y-94099000D02*
X134262672Y-94099000D01*
X131133000Y-98864000D02*
X130428000Y-98864000D01*
X134262672Y-94099000D02*
X131953000Y-96408672D01*
X131953000Y-98044000D02*
X131133000Y-98864000D01*
D25*
%TO.N,Net-(PMOD1-Pad6)*%
X134030500Y-103944000D02*
X134088500Y-103886000D01*
X130428000Y-103944000D02*
X134030500Y-103944000D01*
D24*
%TO.N,Net-(R2-Pad2)*%
X141485500Y-94599000D02*
X141605000Y-94718500D01*
X139610000Y-94599000D02*
X141485500Y-94599000D01*
%TD*%
%TA.AperFunction,Conductor*%
%TO.N,GND*%
G36*
X158945621Y-89555502D02*
G01*
X158992114Y-89609158D01*
X159003500Y-89661500D01*
X159003500Y-99643667D01*
X158983498Y-99711788D01*
X158929842Y-99758281D01*
X158859568Y-99768385D01*
X158794988Y-99738891D01*
X158788405Y-99732762D01*
X158281097Y-99225453D01*
X156199392Y-97143747D01*
X156191852Y-97135461D01*
X156187740Y-97128982D01*
X156138088Y-97082356D01*
X156135247Y-97079602D01*
X156115510Y-97059865D01*
X156112313Y-97057385D01*
X156103291Y-97049680D01*
X156100784Y-97047326D01*
X156071061Y-97019414D01*
X156064115Y-97015595D01*
X156064112Y-97015593D01*
X156053306Y-97009652D01*
X156036787Y-96998801D01*
X156036323Y-96998441D01*
X156020781Y-96986386D01*
X156013512Y-96983241D01*
X156013508Y-96983238D01*
X155980203Y-96968826D01*
X155969553Y-96963609D01*
X155930800Y-96942305D01*
X155911177Y-96937267D01*
X155892474Y-96930863D01*
X155881160Y-96925967D01*
X155881159Y-96925967D01*
X155873885Y-96922819D01*
X155866062Y-96921580D01*
X155866052Y-96921577D01*
X155830216Y-96915901D01*
X155818596Y-96913495D01*
X155783451Y-96904472D01*
X155783450Y-96904472D01*
X155775770Y-96902500D01*
X155755516Y-96902500D01*
X155735805Y-96900949D01*
X155723626Y-96899020D01*
X155715797Y-96897780D01*
X155707905Y-96898526D01*
X155671779Y-96901941D01*
X155659921Y-96902500D01*
X152945500Y-96902500D01*
X152877379Y-96882498D01*
X152830886Y-96828842D01*
X152819500Y-96776500D01*
X152819500Y-96437866D01*
X152812745Y-96375684D01*
X152809971Y-96368284D01*
X152808966Y-96364058D01*
X152808966Y-96305761D01*
X152813105Y-96288354D01*
X152818631Y-96237486D01*
X152819000Y-96230672D01*
X152819000Y-96156282D01*
X152839002Y-96088161D01*
X152892658Y-96041668D01*
X152962932Y-96031564D01*
X153027248Y-96060862D01*
X153031466Y-96065322D01*
X153190975Y-96177011D01*
X153196838Y-96179548D01*
X153363825Y-96251810D01*
X153363829Y-96251811D01*
X153369684Y-96254345D01*
X153375931Y-96255650D01*
X153375934Y-96255651D01*
X153555557Y-96293176D01*
X153555562Y-96293177D01*
X153560293Y-96294165D01*
X153566685Y-96294500D01*
X153709663Y-96294500D01*
X153778951Y-96287462D01*
X153848378Y-96280410D01*
X153848379Y-96280410D01*
X153854727Y-96279765D01*
X153935843Y-96254345D01*
X154034451Y-96223444D01*
X154034456Y-96223442D01*
X154040541Y-96221535D01*
X154158259Y-96156282D01*
X154205271Y-96130223D01*
X154205274Y-96130221D01*
X154210850Y-96127130D01*
X154215691Y-96122981D01*
X154215695Y-96122978D01*
X154353855Y-96004560D01*
X154358698Y-96000409D01*
X154364911Y-95992400D01*
X154474131Y-95851594D01*
X154478046Y-95846547D01*
X154497921Y-95806157D01*
X154561200Y-95677556D01*
X154564018Y-95671829D01*
X154590870Y-95568742D01*
X154611492Y-95489575D01*
X154611492Y-95489572D01*
X154613102Y-95483393D01*
X154618360Y-95383064D01*
X154622959Y-95295317D01*
X154622959Y-95295313D01*
X154623293Y-95288936D01*
X154597450Y-95118054D01*
X154595130Y-95102715D01*
X154595130Y-95102714D01*
X154594175Y-95096401D01*
X154591972Y-95090415D01*
X154591971Y-95090409D01*
X154529140Y-94919640D01*
X154529138Y-94919635D01*
X154526937Y-94913654D01*
X154424326Y-94748160D01*
X154389871Y-94711724D01*
X154294919Y-94611315D01*
X154290534Y-94606678D01*
X154270986Y-94592990D01*
X154136259Y-94498654D01*
X154131025Y-94494989D01*
X154083013Y-94474212D01*
X153958175Y-94420190D01*
X153958171Y-94420189D01*
X153952316Y-94417655D01*
X153946069Y-94416350D01*
X153946066Y-94416349D01*
X153766443Y-94378824D01*
X153766438Y-94378823D01*
X153761707Y-94377835D01*
X153755315Y-94377500D01*
X153612337Y-94377500D01*
X153543049Y-94384538D01*
X153473622Y-94391590D01*
X153473621Y-94391590D01*
X153467273Y-94392235D01*
X153432858Y-94403020D01*
X153287549Y-94448556D01*
X153287544Y-94448558D01*
X153281459Y-94450465D01*
X153207027Y-94491724D01*
X153116729Y-94541777D01*
X153116726Y-94541779D01*
X153111150Y-94544870D01*
X153106309Y-94549019D01*
X153106305Y-94549022D01*
X152995494Y-94643999D01*
X152963302Y-94671591D01*
X152959391Y-94676633D01*
X152959390Y-94676634D01*
X152907503Y-94743526D01*
X152843954Y-94825453D01*
X152841138Y-94831176D01*
X152841136Y-94831179D01*
X152799892Y-94914998D01*
X152757982Y-95000171D01*
X152756373Y-95006349D01*
X152756372Y-95006351D01*
X152719463Y-95148047D01*
X152682936Y-95208926D01*
X152619293Y-95240393D01*
X152553303Y-95234268D01*
X152428609Y-95187522D01*
X152413351Y-95183895D01*
X152362486Y-95178369D01*
X152355672Y-95178000D01*
X151329115Y-95178000D01*
X151313876Y-95182475D01*
X151312671Y-95183865D01*
X151311000Y-95191548D01*
X151311000Y-95851500D01*
X151290998Y-95919621D01*
X151237342Y-95966114D01*
X151185000Y-95977500D01*
X150937000Y-95977500D01*
X150868879Y-95957498D01*
X150822386Y-95903842D01*
X150811000Y-95851500D01*
X150811000Y-95196116D01*
X150806525Y-95180877D01*
X150805135Y-95179672D01*
X150797452Y-95178001D01*
X149766331Y-95178001D01*
X149759510Y-95178371D01*
X149708648Y-95183895D01*
X149693396Y-95187521D01*
X149572946Y-95232676D01*
X149557351Y-95241214D01*
X149482988Y-95296946D01*
X149416481Y-95321794D01*
X149347099Y-95306741D01*
X149296869Y-95256567D01*
X149287900Y-95235997D01*
X149250870Y-95125007D01*
X149250869Y-95125005D01*
X149248550Y-95118054D01*
X149155478Y-94967652D01*
X149030303Y-94842695D01*
X149025765Y-94839898D01*
X148985176Y-94782647D01*
X148981946Y-94711724D01*
X149017572Y-94650313D01*
X149026068Y-94642938D01*
X149036207Y-94634902D01*
X149150739Y-94520171D01*
X149159751Y-94508760D01*
X149196109Y-94449776D01*
X149248881Y-94402283D01*
X149318953Y-94390859D01*
X149384077Y-94419133D01*
X149404195Y-94440327D01*
X149442715Y-94491724D01*
X149455276Y-94504285D01*
X149557351Y-94580786D01*
X149572946Y-94589324D01*
X149693394Y-94634478D01*
X149708649Y-94638105D01*
X149759514Y-94643631D01*
X149766328Y-94644000D01*
X150788885Y-94644000D01*
X150804124Y-94639525D01*
X150805329Y-94638135D01*
X150807000Y-94630452D01*
X150807000Y-94625884D01*
X151315000Y-94625884D01*
X151319475Y-94641123D01*
X151320865Y-94642328D01*
X151328548Y-94643999D01*
X152355669Y-94643999D01*
X152362490Y-94643629D01*
X152413352Y-94638105D01*
X152428604Y-94634479D01*
X152549054Y-94589324D01*
X152564649Y-94580786D01*
X152666724Y-94504285D01*
X152679285Y-94491724D01*
X152755786Y-94389649D01*
X152764324Y-94374054D01*
X152809478Y-94253606D01*
X152813105Y-94238351D01*
X152818631Y-94187486D01*
X152819000Y-94180672D01*
X152819000Y-94180669D01*
X154803001Y-94180669D01*
X154803371Y-94187490D01*
X154808895Y-94238352D01*
X154812521Y-94253604D01*
X154857676Y-94374054D01*
X154866214Y-94389649D01*
X154942715Y-94491724D01*
X154955276Y-94504285D01*
X155057351Y-94580786D01*
X155072946Y-94589324D01*
X155193394Y-94634478D01*
X155208649Y-94638105D01*
X155259514Y-94643631D01*
X155266328Y-94644000D01*
X156288885Y-94644000D01*
X156304124Y-94639525D01*
X156305329Y-94638135D01*
X156307000Y-94630452D01*
X156307000Y-94625884D01*
X156815000Y-94625884D01*
X156819475Y-94641123D01*
X156820865Y-94642328D01*
X156828548Y-94643999D01*
X157855669Y-94643999D01*
X157862490Y-94643629D01*
X157913352Y-94638105D01*
X157928604Y-94634479D01*
X158049054Y-94589324D01*
X158064649Y-94580786D01*
X158166724Y-94504285D01*
X158179285Y-94491724D01*
X158255786Y-94389649D01*
X158264324Y-94374054D01*
X158309478Y-94253606D01*
X158313105Y-94238351D01*
X158318631Y-94187486D01*
X158319000Y-94180672D01*
X158319000Y-93408115D01*
X158314525Y-93392876D01*
X158313135Y-93391671D01*
X158305452Y-93390000D01*
X156833115Y-93390000D01*
X156817876Y-93394475D01*
X156816671Y-93395865D01*
X156815000Y-93403548D01*
X156815000Y-94625884D01*
X156307000Y-94625884D01*
X156307000Y-93408115D01*
X156302525Y-93392876D01*
X156301135Y-93391671D01*
X156293452Y-93390000D01*
X154821116Y-93390000D01*
X154805877Y-93394475D01*
X154804672Y-93395865D01*
X154803001Y-93403548D01*
X154803001Y-94180669D01*
X152819000Y-94180669D01*
X152819000Y-93408115D01*
X152814525Y-93392876D01*
X152813135Y-93391671D01*
X152805452Y-93390000D01*
X151333115Y-93390000D01*
X151317876Y-93394475D01*
X151316671Y-93395865D01*
X151315000Y-93403548D01*
X151315000Y-94625884D01*
X150807000Y-94625884D01*
X150807000Y-92863885D01*
X151315000Y-92863885D01*
X151319475Y-92879124D01*
X151320865Y-92880329D01*
X151328548Y-92882000D01*
X152800884Y-92882000D01*
X152816123Y-92877525D01*
X152817328Y-92876135D01*
X152818999Y-92868452D01*
X152818999Y-92863885D01*
X154803000Y-92863885D01*
X154807475Y-92879124D01*
X154808865Y-92880329D01*
X154816548Y-92882000D01*
X156288885Y-92882000D01*
X156304124Y-92877525D01*
X156305329Y-92876135D01*
X156307000Y-92868452D01*
X156307000Y-92863885D01*
X156815000Y-92863885D01*
X156819475Y-92879124D01*
X156820865Y-92880329D01*
X156828548Y-92882000D01*
X158300884Y-92882000D01*
X158316123Y-92877525D01*
X158317328Y-92876135D01*
X158318999Y-92868452D01*
X158318999Y-92091331D01*
X158318629Y-92084510D01*
X158313105Y-92033648D01*
X158309479Y-92018396D01*
X158264324Y-91897946D01*
X158255786Y-91882351D01*
X158179285Y-91780276D01*
X158166724Y-91767715D01*
X158064649Y-91691214D01*
X158049054Y-91682676D01*
X157928606Y-91637522D01*
X157913351Y-91633895D01*
X157862486Y-91628369D01*
X157855672Y-91628000D01*
X156833115Y-91628000D01*
X156817876Y-91632475D01*
X156816671Y-91633865D01*
X156815000Y-91641548D01*
X156815000Y-92863885D01*
X156307000Y-92863885D01*
X156307000Y-91646116D01*
X156302525Y-91630877D01*
X156301135Y-91629672D01*
X156293452Y-91628001D01*
X155266331Y-91628001D01*
X155259510Y-91628371D01*
X155208648Y-91633895D01*
X155193396Y-91637521D01*
X155072946Y-91682676D01*
X155057351Y-91691214D01*
X154955276Y-91767715D01*
X154942715Y-91780276D01*
X154866214Y-91882351D01*
X154857676Y-91897946D01*
X154812522Y-92018394D01*
X154808895Y-92033649D01*
X154803369Y-92084514D01*
X154803000Y-92091328D01*
X154803000Y-92863885D01*
X152818999Y-92863885D01*
X152818999Y-92091331D01*
X152818629Y-92084510D01*
X152813105Y-92033648D01*
X152809479Y-92018396D01*
X152764324Y-91897946D01*
X152755786Y-91882351D01*
X152679285Y-91780276D01*
X152666724Y-91767715D01*
X152564649Y-91691214D01*
X152549054Y-91682676D01*
X152428606Y-91637522D01*
X152413351Y-91633895D01*
X152362486Y-91628369D01*
X152355672Y-91628000D01*
X151333115Y-91628000D01*
X151317876Y-91632475D01*
X151316671Y-91633865D01*
X151315000Y-91641548D01*
X151315000Y-92863885D01*
X150807000Y-92863885D01*
X150807000Y-91646116D01*
X150802525Y-91630877D01*
X150801135Y-91629672D01*
X150793452Y-91628001D01*
X149766331Y-91628001D01*
X149759510Y-91628371D01*
X149708648Y-91633895D01*
X149693396Y-91637521D01*
X149572946Y-91682676D01*
X149557351Y-91691214D01*
X149455276Y-91767715D01*
X149442715Y-91780276D01*
X149366214Y-91882351D01*
X149357676Y-91897946D01*
X149312449Y-92018588D01*
X149269807Y-92075352D01*
X149203246Y-92100052D01*
X149133897Y-92084844D01*
X149123062Y-92077308D01*
X149112452Y-92075000D01*
X148402615Y-92075000D01*
X148387376Y-92079475D01*
X148386171Y-92080865D01*
X148384500Y-92088548D01*
X148384500Y-92973826D01*
X148364498Y-93041947D01*
X148353725Y-93056338D01*
X148337671Y-93074865D01*
X148336000Y-93082548D01*
X148336000Y-93920000D01*
X148315998Y-93988121D01*
X148262342Y-94034614D01*
X148210000Y-94046000D01*
X147954000Y-94046000D01*
X147885879Y-94025998D01*
X147839386Y-93972342D01*
X147828000Y-93920000D01*
X147828000Y-92839174D01*
X147848002Y-92771053D01*
X147858775Y-92756662D01*
X147874829Y-92738135D01*
X147876500Y-92730452D01*
X147876500Y-91548885D01*
X148384500Y-91548885D01*
X148388975Y-91564124D01*
X148390365Y-91565329D01*
X148398048Y-91567000D01*
X149107884Y-91567000D01*
X149123123Y-91562525D01*
X149124328Y-91561135D01*
X149125999Y-91553452D01*
X149125999Y-91318067D01*
X149125662Y-91311548D01*
X149115834Y-91216830D01*
X149112942Y-91203436D01*
X149061964Y-91050635D01*
X149055790Y-91037457D01*
X148971256Y-90900851D01*
X148962220Y-90889450D01*
X148848521Y-90775949D01*
X148837110Y-90766937D01*
X148700346Y-90682635D01*
X148687168Y-90676491D01*
X148534260Y-90625773D01*
X148520894Y-90622907D01*
X148427399Y-90613328D01*
X148420984Y-90613000D01*
X148402615Y-90613000D01*
X148387376Y-90617475D01*
X148386171Y-90618865D01*
X148384500Y-90626548D01*
X148384500Y-91548885D01*
X147876500Y-91548885D01*
X147876500Y-90631116D01*
X147872025Y-90615877D01*
X147870635Y-90614672D01*
X147862952Y-90613001D01*
X147840067Y-90613001D01*
X147833548Y-90613338D01*
X147738830Y-90623166D01*
X147725436Y-90626058D01*
X147572635Y-90677036D01*
X147559457Y-90683210D01*
X147422851Y-90767744D01*
X147411450Y-90776780D01*
X147297949Y-90890479D01*
X147292206Y-90897751D01*
X147234289Y-90938814D01*
X147163366Y-90942046D01*
X147101954Y-90906421D01*
X147096160Y-90899746D01*
X147092797Y-90894311D01*
X146968653Y-90770383D01*
X146819329Y-90678339D01*
X146812380Y-90676034D01*
X146659366Y-90625281D01*
X146659364Y-90625281D01*
X146652835Y-90623115D01*
X146549231Y-90612500D01*
X146257766Y-90612500D01*
X145961770Y-90612501D01*
X145856871Y-90623384D01*
X145850340Y-90625563D01*
X145850335Y-90625564D01*
X145739808Y-90662439D01*
X145690474Y-90678898D01*
X145541311Y-90771203D01*
X145417383Y-90895347D01*
X145325339Y-91044671D01*
X145323034Y-91051619D01*
X145323034Y-91051620D01*
X145272679Y-91203436D01*
X145270115Y-91211165D01*
X145259500Y-91314769D01*
X145259500Y-91317986D01*
X145259501Y-91874087D01*
X145248337Y-91925938D01*
X145241955Y-91940073D01*
X145240571Y-91947540D01*
X145239770Y-91950095D01*
X145235141Y-91966348D01*
X145234478Y-91968928D01*
X145231718Y-91976009D01*
X145230727Y-91983540D01*
X145230726Y-91983542D01*
X145223379Y-92039352D01*
X145222348Y-92045859D01*
X145210704Y-92108686D01*
X145211141Y-92116266D01*
X145211141Y-92116267D01*
X145214291Y-92170892D01*
X145214500Y-92178146D01*
X145214500Y-93654613D01*
X145194498Y-93722734D01*
X145148270Y-93763184D01*
X145149054Y-93764450D01*
X144998652Y-93857522D01*
X144993479Y-93862704D01*
X144957305Y-93898941D01*
X144895022Y-93933020D01*
X144824202Y-93928017D01*
X144779114Y-93899096D01*
X144717171Y-93837261D01*
X144705760Y-93828249D01*
X144567757Y-93743184D01*
X144554576Y-93737037D01*
X144400290Y-93685862D01*
X144386914Y-93682995D01*
X144292562Y-93673328D01*
X144286145Y-93673000D01*
X144036115Y-93673000D01*
X144020876Y-93677475D01*
X144019671Y-93678865D01*
X144018000Y-93686548D01*
X144018000Y-94809000D01*
X143997998Y-94877121D01*
X143944342Y-94923614D01*
X143892000Y-94935000D01*
X143636000Y-94935000D01*
X143567879Y-94914998D01*
X143521386Y-94861342D01*
X143510000Y-94809000D01*
X143510000Y-93691116D01*
X143505525Y-93675877D01*
X143504135Y-93674672D01*
X143496452Y-93673001D01*
X143241905Y-93673001D01*
X143235386Y-93673338D01*
X143139794Y-93683257D01*
X143126400Y-93686149D01*
X142972216Y-93737588D01*
X142959038Y-93743761D01*
X142821193Y-93829063D01*
X142809787Y-93838103D01*
X142749011Y-93898984D01*
X142686729Y-93933063D01*
X142615908Y-93928060D01*
X142570821Y-93899139D01*
X142533483Y-93861866D01*
X142528303Y-93856695D01*
X142518399Y-93850590D01*
X142383968Y-93767725D01*
X142383966Y-93767724D01*
X142377738Y-93763885D01*
X142217254Y-93710655D01*
X142216389Y-93710368D01*
X142216387Y-93710368D01*
X142209861Y-93708203D01*
X142203025Y-93707503D01*
X142203022Y-93707502D01*
X142159177Y-93703010D01*
X142105400Y-93697500D01*
X141104600Y-93697500D01*
X141101354Y-93697837D01*
X141101350Y-93697837D01*
X141005692Y-93707762D01*
X141005688Y-93707763D01*
X140998834Y-93708474D01*
X140992298Y-93710655D01*
X140992296Y-93710655D01*
X140911569Y-93737588D01*
X140831054Y-93764450D01*
X140824822Y-93768306D01*
X140824823Y-93768306D01*
X140707286Y-93841040D01*
X140638834Y-93859878D01*
X140571064Y-93838717D01*
X140525493Y-93784276D01*
X140516061Y-93717449D01*
X140516956Y-93710655D01*
X140518500Y-93698925D01*
X140518499Y-93499076D01*
X140503803Y-93387439D01*
X140501125Y-93380974D01*
X140501125Y-93317026D01*
X140503803Y-93310561D01*
X140518500Y-93198925D01*
X140518499Y-92999076D01*
X140515979Y-92979928D01*
X140504881Y-92895629D01*
X140503803Y-92887439D01*
X140501125Y-92880974D01*
X140501125Y-92817026D01*
X140503803Y-92810561D01*
X140518500Y-92698925D01*
X140518499Y-92499076D01*
X140512995Y-92457261D01*
X140504881Y-92395629D01*
X140503803Y-92387439D01*
X140501125Y-92380974D01*
X140501125Y-92317026D01*
X140503803Y-92310561D01*
X140518500Y-92198925D01*
X140518499Y-91999076D01*
X140515463Y-91976009D01*
X140504881Y-91895626D01*
X140504880Y-91895624D01*
X140503803Y-91887439D01*
X140446267Y-91748536D01*
X140367678Y-91646116D01*
X140359769Y-91635809D01*
X140359768Y-91635808D01*
X140354742Y-91629258D01*
X140235463Y-91537733D01*
X140096561Y-91480197D01*
X140088377Y-91479120D01*
X140088375Y-91479119D01*
X139989012Y-91466038D01*
X139989011Y-91466038D01*
X139984925Y-91465500D01*
X139963022Y-91465500D01*
X139419499Y-91465501D01*
X139351379Y-91445499D01*
X139304886Y-91391843D01*
X139293500Y-91339501D01*
X139293499Y-90778199D01*
X139293499Y-90774076D01*
X139292666Y-90767744D01*
X139279881Y-90670626D01*
X139279880Y-90670624D01*
X139278803Y-90662439D01*
X139221267Y-90523536D01*
X139175504Y-90463897D01*
X139134769Y-90410809D01*
X139134768Y-90410808D01*
X139129742Y-90404258D01*
X139010463Y-90312733D01*
X138871561Y-90255197D01*
X138863377Y-90254120D01*
X138863375Y-90254119D01*
X138764012Y-90241038D01*
X138764011Y-90241038D01*
X138759925Y-90240500D01*
X138660013Y-90240500D01*
X138560076Y-90240501D01*
X138555991Y-90241039D01*
X138555987Y-90241039D01*
X138489656Y-90249771D01*
X138448439Y-90255197D01*
X138441974Y-90257875D01*
X138378026Y-90257875D01*
X138371561Y-90255197D01*
X138277992Y-90242879D01*
X138264012Y-90241038D01*
X138264011Y-90241038D01*
X138259925Y-90240500D01*
X138160013Y-90240500D01*
X138060076Y-90240501D01*
X138055991Y-90241039D01*
X138055987Y-90241039D01*
X137989656Y-90249771D01*
X137948439Y-90255197D01*
X137941974Y-90257875D01*
X137878026Y-90257875D01*
X137871561Y-90255197D01*
X137777992Y-90242879D01*
X137764012Y-90241038D01*
X137764011Y-90241038D01*
X137759925Y-90240500D01*
X137660013Y-90240500D01*
X137560076Y-90240501D01*
X137555991Y-90241039D01*
X137555987Y-90241039D01*
X137489656Y-90249771D01*
X137448439Y-90255197D01*
X137441974Y-90257875D01*
X137378026Y-90257875D01*
X137371561Y-90255197D01*
X137277992Y-90242879D01*
X137264012Y-90241038D01*
X137264011Y-90241038D01*
X137259925Y-90240500D01*
X137160013Y-90240500D01*
X137060076Y-90240501D01*
X137055991Y-90241039D01*
X137055987Y-90241039D01*
X136989656Y-90249771D01*
X136948439Y-90255197D01*
X136941974Y-90257875D01*
X136878026Y-90257875D01*
X136871561Y-90255197D01*
X136777992Y-90242879D01*
X136764012Y-90241038D01*
X136764011Y-90241038D01*
X136759925Y-90240500D01*
X136660013Y-90240500D01*
X136560076Y-90240501D01*
X136555991Y-90241039D01*
X136555987Y-90241039D01*
X136489656Y-90249771D01*
X136448439Y-90255197D01*
X136441974Y-90257875D01*
X136378026Y-90257875D01*
X136371561Y-90255197D01*
X136277992Y-90242879D01*
X136264012Y-90241038D01*
X136264011Y-90241038D01*
X136259925Y-90240500D01*
X136160013Y-90240500D01*
X136060076Y-90240501D01*
X136055991Y-90241039D01*
X136055987Y-90241039D01*
X135989656Y-90249771D01*
X135948439Y-90255197D01*
X135941974Y-90257875D01*
X135878026Y-90257875D01*
X135871561Y-90255197D01*
X135777992Y-90242879D01*
X135764012Y-90241038D01*
X135764011Y-90241038D01*
X135759925Y-90240500D01*
X135660013Y-90240500D01*
X135560076Y-90240501D01*
X135555991Y-90241039D01*
X135555987Y-90241039D01*
X135456626Y-90254119D01*
X135456624Y-90254120D01*
X135448439Y-90255197D01*
X135309536Y-90312733D01*
X135302985Y-90317760D01*
X135196811Y-90399230D01*
X135190258Y-90404258D01*
X135098733Y-90523537D01*
X135041197Y-90662439D01*
X135040120Y-90670623D01*
X135040119Y-90670625D01*
X135038462Y-90683210D01*
X135026500Y-90774075D01*
X135026500Y-90778197D01*
X135026501Y-91339500D01*
X135006499Y-91407621D01*
X134952843Y-91454114D01*
X134900501Y-91465500D01*
X134356984Y-91465501D01*
X134335076Y-91465501D01*
X134330992Y-91466039D01*
X134330986Y-91466039D01*
X134231626Y-91479119D01*
X134231624Y-91479120D01*
X134223439Y-91480197D01*
X134084536Y-91537733D01*
X134024897Y-91583496D01*
X133971811Y-91624230D01*
X133965258Y-91629258D01*
X133873733Y-91748537D01*
X133816197Y-91887439D01*
X133812906Y-91886076D01*
X133784476Y-91932727D01*
X133720618Y-91963754D01*
X133699713Y-91965500D01*
X132097595Y-91965500D01*
X132029474Y-91945498D01*
X132008500Y-91928595D01*
X131823405Y-91743500D01*
X131789379Y-91681188D01*
X131786500Y-91654405D01*
X131786500Y-90345866D01*
X131779745Y-90283684D01*
X131728615Y-90147295D01*
X131641261Y-90030739D01*
X131524705Y-89943385D01*
X131388316Y-89892255D01*
X131326134Y-89885500D01*
X129529866Y-89885500D01*
X129467684Y-89892255D01*
X129331295Y-89943385D01*
X129214739Y-90030739D01*
X129127385Y-90147295D01*
X129076255Y-90283684D01*
X129069500Y-90345866D01*
X129069500Y-92142134D01*
X129076255Y-92204316D01*
X129127385Y-92340705D01*
X129214739Y-92457261D01*
X129331295Y-92544615D01*
X129339704Y-92547767D01*
X129339705Y-92547768D01*
X129448451Y-92588535D01*
X129505216Y-92631176D01*
X129529916Y-92697738D01*
X129514709Y-92767087D01*
X129495316Y-92793568D01*
X129368629Y-92926138D01*
X129365715Y-92930410D01*
X129365714Y-92930411D01*
X129313446Y-93007033D01*
X129242743Y-93110680D01*
X129203695Y-93194803D01*
X129157128Y-93295123D01*
X129148688Y-93313305D01*
X129088989Y-93528570D01*
X129065251Y-93750695D01*
X129065548Y-93755848D01*
X129065548Y-93755851D01*
X129073810Y-93899139D01*
X129078110Y-93973715D01*
X129079247Y-93978761D01*
X129079248Y-93978767D01*
X129091834Y-94034614D01*
X129127222Y-94191639D01*
X129152384Y-94253606D01*
X129206728Y-94387439D01*
X129211266Y-94398616D01*
X129241869Y-94448556D01*
X129322900Y-94580786D01*
X129327987Y-94589088D01*
X129474250Y-94757938D01*
X129646126Y-94900632D01*
X129685455Y-94923614D01*
X129719445Y-94943476D01*
X129768169Y-94995114D01*
X129781240Y-95064897D01*
X129754509Y-95130669D01*
X129714055Y-95164027D01*
X129701607Y-95170507D01*
X129697474Y-95173610D01*
X129697471Y-95173612D01*
X129527100Y-95301530D01*
X129522965Y-95304635D01*
X129368629Y-95466138D01*
X129242743Y-95650680D01*
X129148688Y-95853305D01*
X129088989Y-96068570D01*
X129065251Y-96290695D01*
X129065548Y-96295848D01*
X129065548Y-96295851D01*
X129073541Y-96434469D01*
X129078110Y-96513715D01*
X129079247Y-96518761D01*
X129079248Y-96518767D01*
X129084752Y-96543189D01*
X129127222Y-96731639D01*
X129187562Y-96880240D01*
X129206371Y-96926560D01*
X129211266Y-96938616D01*
X129243515Y-96991242D01*
X129324598Y-97123557D01*
X129327987Y-97129088D01*
X129474250Y-97297938D01*
X129646126Y-97440632D01*
X129716595Y-97481811D01*
X129719445Y-97483476D01*
X129768169Y-97535114D01*
X129781240Y-97604897D01*
X129754509Y-97670669D01*
X129714055Y-97704027D01*
X129701607Y-97710507D01*
X129697474Y-97713610D01*
X129697471Y-97713612D01*
X129527100Y-97841530D01*
X129522965Y-97844635D01*
X129519393Y-97848373D01*
X129397732Y-97975684D01*
X129368629Y-98006138D01*
X129365715Y-98010410D01*
X129365714Y-98010411D01*
X129359146Y-98020039D01*
X129242743Y-98190680D01*
X129224761Y-98229420D01*
X129159682Y-98369621D01*
X129148688Y-98393305D01*
X129088989Y-98608570D01*
X129065251Y-98830695D01*
X129065548Y-98835848D01*
X129065548Y-98835851D01*
X129075382Y-99006405D01*
X129078110Y-99053715D01*
X129079247Y-99058761D01*
X129079248Y-99058767D01*
X129095205Y-99129572D01*
X129127222Y-99271639D01*
X129211266Y-99478616D01*
X129213965Y-99483020D01*
X129299613Y-99622785D01*
X129327987Y-99669088D01*
X129474250Y-99837938D01*
X129646126Y-99980632D01*
X129719955Y-100023774D01*
X129768679Y-100075412D01*
X129781750Y-100145195D01*
X129755019Y-100210967D01*
X129714562Y-100244327D01*
X129706457Y-100248546D01*
X129697738Y-100254036D01*
X129527433Y-100381905D01*
X129519726Y-100388748D01*
X129372590Y-100542717D01*
X129366104Y-100550727D01*
X129246098Y-100726649D01*
X129241000Y-100735623D01*
X129151338Y-100928783D01*
X129147775Y-100938470D01*
X129092389Y-101138183D01*
X129093912Y-101146607D01*
X129106292Y-101150000D01*
X131746344Y-101150000D01*
X131759875Y-101146027D01*
X131761180Y-101136947D01*
X131719214Y-100969875D01*
X131715894Y-100960124D01*
X131630972Y-100764814D01*
X131626105Y-100755739D01*
X131510426Y-100576926D01*
X131504136Y-100568757D01*
X131360806Y-100411240D01*
X131353273Y-100404215D01*
X131186139Y-100272222D01*
X131177556Y-100266520D01*
X131140602Y-100246120D01*
X131090631Y-100195687D01*
X131075859Y-100126245D01*
X131100975Y-100059839D01*
X131128327Y-100033232D01*
X131151797Y-100016491D01*
X131307860Y-99905173D01*
X131318571Y-99894500D01*
X131394108Y-99819226D01*
X131466096Y-99747489D01*
X131470191Y-99741791D01*
X131593435Y-99570277D01*
X131596453Y-99566077D01*
X131627769Y-99502715D01*
X131693136Y-99370453D01*
X131693137Y-99370451D01*
X131695430Y-99365811D01*
X131759729Y-99154179D01*
X131791192Y-99101712D01*
X132062210Y-98830695D01*
X132345258Y-98547647D01*
X132353537Y-98540113D01*
X132360018Y-98536000D01*
X132406644Y-98486348D01*
X132409398Y-98483507D01*
X132429135Y-98463770D01*
X132431615Y-98460573D01*
X132439320Y-98451551D01*
X132464159Y-98425100D01*
X132469586Y-98419321D01*
X132473405Y-98412375D01*
X132473407Y-98412372D01*
X132479348Y-98401566D01*
X132490199Y-98385047D01*
X132497758Y-98375301D01*
X132502614Y-98369041D01*
X132505759Y-98361772D01*
X132505762Y-98361768D01*
X132520174Y-98328463D01*
X132525391Y-98317813D01*
X132546695Y-98279060D01*
X132551733Y-98259437D01*
X132558137Y-98240734D01*
X132563033Y-98229420D01*
X132563033Y-98229419D01*
X132566181Y-98222145D01*
X132567420Y-98214322D01*
X132567423Y-98214312D01*
X132573099Y-98178476D01*
X132575505Y-98166856D01*
X132584528Y-98131711D01*
X132584528Y-98131710D01*
X132586500Y-98124030D01*
X132586500Y-98103776D01*
X132588051Y-98084065D01*
X132589980Y-98071886D01*
X132591220Y-98064057D01*
X132587059Y-98020038D01*
X132586500Y-98008181D01*
X132586500Y-96723266D01*
X132606502Y-96655145D01*
X132623405Y-96634171D01*
X133743648Y-95513928D01*
X133805960Y-95479902D01*
X133876775Y-95484967D01*
X133932706Y-95526320D01*
X133960228Y-95562188D01*
X133960232Y-95562192D01*
X133965258Y-95568742D01*
X134084537Y-95660267D01*
X134223439Y-95717803D01*
X134231623Y-95718880D01*
X134231625Y-95718881D01*
X134330988Y-95731962D01*
X134335075Y-95732500D01*
X134356978Y-95732500D01*
X134900501Y-95732499D01*
X134968621Y-95752501D01*
X135015114Y-95806157D01*
X135026500Y-95858499D01*
X135026501Y-96156282D01*
X135026501Y-96423924D01*
X135027039Y-96428008D01*
X135027039Y-96428014D01*
X135034462Y-96484401D01*
X135041197Y-96535561D01*
X135098733Y-96674464D01*
X135190258Y-96793742D01*
X135309537Y-96885267D01*
X135448439Y-96942803D01*
X135456623Y-96943880D01*
X135456625Y-96943881D01*
X135555988Y-96956962D01*
X135560075Y-96957500D01*
X135659987Y-96957500D01*
X135759924Y-96957499D01*
X135764009Y-96956961D01*
X135764013Y-96956961D01*
X135848217Y-96945876D01*
X135871561Y-96942803D01*
X135878026Y-96940125D01*
X135941974Y-96940125D01*
X135948439Y-96942803D01*
X136033649Y-96954021D01*
X136055981Y-96956961D01*
X136060075Y-96957500D01*
X136159987Y-96957500D01*
X136259924Y-96957499D01*
X136264009Y-96956961D01*
X136264013Y-96956961D01*
X136304752Y-96951598D01*
X136371561Y-96942803D01*
X136378656Y-96939864D01*
X136443582Y-96939864D01*
X136456757Y-96943394D01*
X136475613Y-96945876D01*
X136540541Y-96974597D01*
X136573167Y-97018551D01*
X136573982Y-97021356D01*
X136578015Y-97028176D01*
X136578018Y-97028182D01*
X136584293Y-97038791D01*
X136592988Y-97056539D01*
X136600448Y-97075380D01*
X136605110Y-97081796D01*
X136605110Y-97081797D01*
X136626436Y-97111150D01*
X136632952Y-97121070D01*
X136641782Y-97136000D01*
X136655458Y-97159125D01*
X136669779Y-97173446D01*
X136682619Y-97188479D01*
X136694528Y-97204870D01*
X136700634Y-97209921D01*
X136728605Y-97233061D01*
X136737384Y-97241051D01*
X144097100Y-104600767D01*
X144104644Y-104609057D01*
X144108757Y-104615538D01*
X144114534Y-104620963D01*
X144158424Y-104662178D01*
X144161266Y-104664933D01*
X144180987Y-104684654D01*
X144184182Y-104687132D01*
X144193204Y-104694838D01*
X144225436Y-104725106D01*
X144232385Y-104728926D01*
X144243189Y-104734866D01*
X144259713Y-104745719D01*
X144275716Y-104758133D01*
X144316300Y-104775696D01*
X144326930Y-104780903D01*
X144365697Y-104802215D01*
X144373374Y-104804186D01*
X144373379Y-104804188D01*
X144385315Y-104807252D01*
X144404023Y-104813657D01*
X144422612Y-104821701D01*
X144430437Y-104822940D01*
X144430439Y-104822941D01*
X144466276Y-104828617D01*
X144477897Y-104831024D01*
X144513046Y-104840048D01*
X144520727Y-104842020D01*
X144540988Y-104842020D01*
X144560697Y-104843571D01*
X144580700Y-104846739D01*
X144588592Y-104845993D01*
X144593819Y-104845499D01*
X144624711Y-104842579D01*
X144636568Y-104842020D01*
X157744451Y-104842020D01*
X157755634Y-104842547D01*
X157763127Y-104844222D01*
X157771053Y-104843973D01*
X157771054Y-104843973D01*
X157831217Y-104842082D01*
X157835175Y-104842020D01*
X157863075Y-104842020D01*
X157867066Y-104841516D01*
X157878899Y-104840584D01*
X157923108Y-104839194D01*
X157930722Y-104836982D01*
X157930727Y-104836981D01*
X157942560Y-104833543D01*
X157961923Y-104829532D01*
X157982016Y-104826994D01*
X157989383Y-104824077D01*
X157989388Y-104824076D01*
X158023127Y-104810718D01*
X158034354Y-104806874D01*
X158050389Y-104802215D01*
X158076812Y-104794538D01*
X158094247Y-104784227D01*
X158111995Y-104775532D01*
X158130836Y-104768072D01*
X158151206Y-104753273D01*
X158166606Y-104742084D01*
X158176526Y-104735568D01*
X158207754Y-104717100D01*
X158207757Y-104717098D01*
X158214581Y-104713062D01*
X158228902Y-104698741D01*
X158243936Y-104685900D01*
X158253912Y-104678652D01*
X158260326Y-104673992D01*
X158288507Y-104639927D01*
X158296497Y-104631146D01*
X158788405Y-104139239D01*
X158850717Y-104105214D01*
X158921533Y-104110279D01*
X158978368Y-104152826D01*
X159003179Y-104219346D01*
X159003500Y-104228335D01*
X159003500Y-105410500D01*
X158983498Y-105478621D01*
X158929842Y-105525114D01*
X158877500Y-105536500D01*
X130663782Y-105536500D01*
X130595661Y-105516498D01*
X130549168Y-105462842D01*
X130539064Y-105392568D01*
X130568558Y-105327988D01*
X130628284Y-105289604D01*
X130647772Y-105285521D01*
X130706288Y-105278025D01*
X130706289Y-105278025D01*
X130711416Y-105277368D01*
X130716366Y-105275883D01*
X130920429Y-105214661D01*
X130920434Y-105214659D01*
X130925384Y-105213174D01*
X131125994Y-105114896D01*
X131307860Y-104985173D01*
X131358733Y-104934478D01*
X131389209Y-104904107D01*
X131466096Y-104827489D01*
X131472329Y-104818815D01*
X131554132Y-104704974D01*
X131610127Y-104661326D01*
X131656455Y-104652500D01*
X133059640Y-104652500D01*
X133127761Y-104672502D01*
X133166784Y-104712197D01*
X133183118Y-104738593D01*
X133227522Y-104810348D01*
X133352697Y-104935305D01*
X133358927Y-104939145D01*
X133358928Y-104939146D01*
X133496246Y-105023790D01*
X133503262Y-105028115D01*
X133510480Y-105030509D01*
X133664611Y-105081632D01*
X133664613Y-105081632D01*
X133671139Y-105083797D01*
X133677975Y-105084497D01*
X133677978Y-105084498D01*
X133721031Y-105088909D01*
X133775600Y-105094500D01*
X134401400Y-105094500D01*
X134404646Y-105094163D01*
X134404650Y-105094163D01*
X134500308Y-105084238D01*
X134500312Y-105084237D01*
X134507166Y-105083526D01*
X134513702Y-105081345D01*
X134513704Y-105081345D01*
X134666077Y-105030509D01*
X134674946Y-105027550D01*
X134825348Y-104934478D01*
X134911784Y-104847891D01*
X134974066Y-104813812D01*
X135044886Y-104818815D01*
X135089976Y-104847736D01*
X135177697Y-104935305D01*
X135183927Y-104939145D01*
X135183928Y-104939146D01*
X135321246Y-105023790D01*
X135328262Y-105028115D01*
X135335480Y-105030509D01*
X135489611Y-105081632D01*
X135489613Y-105081632D01*
X135496139Y-105083797D01*
X135502975Y-105084497D01*
X135502978Y-105084498D01*
X135546031Y-105088909D01*
X135600600Y-105094500D01*
X136226400Y-105094500D01*
X136229646Y-105094163D01*
X136229650Y-105094163D01*
X136325308Y-105084238D01*
X136325312Y-105084237D01*
X136332166Y-105083526D01*
X136338702Y-105081345D01*
X136338704Y-105081345D01*
X136491077Y-105030509D01*
X136499946Y-105027550D01*
X136650348Y-104934478D01*
X136775305Y-104809303D01*
X136803594Y-104763410D01*
X136860780Y-104670638D01*
X136913553Y-104623144D01*
X136983624Y-104611721D01*
X137048748Y-104639995D01*
X137075179Y-104670444D01*
X137163203Y-104812689D01*
X137287347Y-104936617D01*
X137436671Y-105028661D01*
X137443619Y-105030966D01*
X137443620Y-105030966D01*
X137596634Y-105081719D01*
X137596636Y-105081719D01*
X137603165Y-105083885D01*
X137706769Y-105094500D01*
X137998234Y-105094500D01*
X138294230Y-105094499D01*
X138399129Y-105083616D01*
X138405660Y-105081437D01*
X138405665Y-105081436D01*
X138558578Y-105030420D01*
X138565526Y-105028102D01*
X138714689Y-104935797D01*
X138838617Y-104811653D01*
X138840614Y-104808413D01*
X138897352Y-104768186D01*
X138968275Y-104764953D01*
X139029687Y-104800578D01*
X139037066Y-104809078D01*
X139043782Y-104817552D01*
X139157479Y-104931051D01*
X139168890Y-104940063D01*
X139305654Y-105024365D01*
X139318832Y-105030509D01*
X139471740Y-105081227D01*
X139485106Y-105084093D01*
X139578601Y-105093672D01*
X139585016Y-105094000D01*
X139603385Y-105094000D01*
X139618624Y-105089525D01*
X139619829Y-105088135D01*
X139621500Y-105080452D01*
X139621500Y-105075884D01*
X140129500Y-105075884D01*
X140133975Y-105091123D01*
X140135365Y-105092328D01*
X140143048Y-105093999D01*
X140165933Y-105093999D01*
X140172452Y-105093662D01*
X140267170Y-105083834D01*
X140280564Y-105080942D01*
X140433365Y-105029964D01*
X140446543Y-105023790D01*
X140583149Y-104939256D01*
X140594550Y-104930220D01*
X140708051Y-104816521D01*
X140717063Y-104805110D01*
X140801365Y-104668346D01*
X140807509Y-104655168D01*
X140858227Y-104502260D01*
X140861093Y-104488894D01*
X140870672Y-104395399D01*
X140871000Y-104388984D01*
X140871000Y-104158115D01*
X140866525Y-104142876D01*
X140865135Y-104141671D01*
X140857452Y-104140000D01*
X140147615Y-104140000D01*
X140132376Y-104144475D01*
X140131171Y-104145865D01*
X140129500Y-104153548D01*
X140129500Y-105075884D01*
X139621500Y-105075884D01*
X139621500Y-103613885D01*
X140129500Y-103613885D01*
X140133975Y-103629124D01*
X140135365Y-103630329D01*
X140143048Y-103632000D01*
X140852884Y-103632000D01*
X140868123Y-103627525D01*
X140869328Y-103626135D01*
X140870999Y-103618452D01*
X140870999Y-103383067D01*
X140870662Y-103376548D01*
X140860834Y-103281830D01*
X140857942Y-103268436D01*
X140806964Y-103115635D01*
X140800790Y-103102457D01*
X140716256Y-102965851D01*
X140707220Y-102954450D01*
X140593521Y-102840949D01*
X140582110Y-102831937D01*
X140445346Y-102747635D01*
X140432168Y-102741491D01*
X140279260Y-102690773D01*
X140265894Y-102687907D01*
X140172399Y-102678328D01*
X140165984Y-102678000D01*
X140147615Y-102678000D01*
X140132376Y-102682475D01*
X140131171Y-102683865D01*
X140129500Y-102691548D01*
X140129500Y-103613885D01*
X139621500Y-103613885D01*
X139621500Y-102696116D01*
X139617025Y-102680877D01*
X139615635Y-102679672D01*
X139607952Y-102678001D01*
X139585067Y-102678001D01*
X139578548Y-102678338D01*
X139483830Y-102688166D01*
X139470436Y-102691058D01*
X139317635Y-102742036D01*
X139304457Y-102748210D01*
X139167851Y-102832744D01*
X139156450Y-102841780D01*
X139042949Y-102955479D01*
X139037206Y-102962751D01*
X138979289Y-103003814D01*
X138908366Y-103007046D01*
X138846954Y-102971421D01*
X138841160Y-102964746D01*
X138837797Y-102959311D01*
X138713653Y-102835383D01*
X138564329Y-102743339D01*
X138557380Y-102741034D01*
X138404366Y-102690281D01*
X138404364Y-102690281D01*
X138397835Y-102688115D01*
X138294231Y-102677500D01*
X138002766Y-102677500D01*
X137706770Y-102677501D01*
X137601871Y-102688384D01*
X137595340Y-102690563D01*
X137595335Y-102690564D01*
X137461854Y-102735097D01*
X137435474Y-102743898D01*
X137286311Y-102836203D01*
X137162383Y-102960347D01*
X137158543Y-102966577D01*
X137158542Y-102966578D01*
X137075457Y-103101368D01*
X137022685Y-103148861D01*
X136952614Y-103160285D01*
X136887490Y-103132011D01*
X136861053Y-103101555D01*
X136778332Y-102967880D01*
X136774478Y-102961652D01*
X136649303Y-102836695D01*
X136643072Y-102832854D01*
X136504968Y-102747725D01*
X136504966Y-102747724D01*
X136498738Y-102743885D01*
X136368352Y-102700638D01*
X136337389Y-102690368D01*
X136337387Y-102690368D01*
X136330861Y-102688203D01*
X136324025Y-102687503D01*
X136324022Y-102687502D01*
X136280969Y-102683091D01*
X136226400Y-102677500D01*
X135600600Y-102677500D01*
X135597354Y-102677837D01*
X135597350Y-102677837D01*
X135501692Y-102687762D01*
X135501688Y-102687763D01*
X135494834Y-102688474D01*
X135488298Y-102690655D01*
X135488296Y-102690655D01*
X135471928Y-102696116D01*
X135327054Y-102744450D01*
X135176652Y-102837522D01*
X135092791Y-102921530D01*
X135090216Y-102924109D01*
X135027934Y-102958188D01*
X134957114Y-102953185D01*
X134912025Y-102924264D01*
X134829483Y-102841866D01*
X134824303Y-102836695D01*
X134818072Y-102832854D01*
X134679968Y-102747725D01*
X134679966Y-102747724D01*
X134673738Y-102743885D01*
X134543352Y-102700638D01*
X134512389Y-102690368D01*
X134512387Y-102690368D01*
X134505861Y-102688203D01*
X134499025Y-102687503D01*
X134499022Y-102687502D01*
X134455969Y-102683091D01*
X134401400Y-102677500D01*
X133775600Y-102677500D01*
X133772354Y-102677837D01*
X133772350Y-102677837D01*
X133676692Y-102687762D01*
X133676688Y-102687763D01*
X133669834Y-102688474D01*
X133663298Y-102690655D01*
X133663296Y-102690655D01*
X133646928Y-102696116D01*
X133502054Y-102744450D01*
X133351652Y-102837522D01*
X133226695Y-102962697D01*
X133222855Y-102968927D01*
X133222854Y-102968928D01*
X133141217Y-103101368D01*
X133133885Y-103113262D01*
X133131581Y-103120209D01*
X133121976Y-103149167D01*
X133081546Y-103207527D01*
X133015982Y-103234764D01*
X133002383Y-103235500D01*
X131656286Y-103235500D01*
X131588165Y-103215498D01*
X131550494Y-103177941D01*
X131531681Y-103148861D01*
X131508014Y-103112277D01*
X131357670Y-102947051D01*
X131353619Y-102943852D01*
X131353615Y-102943848D01*
X131186414Y-102811800D01*
X131186410Y-102811798D01*
X131182359Y-102808598D01*
X131140569Y-102785529D01*
X131090598Y-102735097D01*
X131075826Y-102665654D01*
X131100942Y-102599248D01*
X131128294Y-102572641D01*
X131303328Y-102447792D01*
X131311200Y-102441139D01*
X131462052Y-102290812D01*
X131468730Y-102282965D01*
X131593003Y-102110020D01*
X131598313Y-102101183D01*
X131692670Y-101910267D01*
X131696469Y-101900672D01*
X131758377Y-101696910D01*
X131760555Y-101686837D01*
X131761986Y-101675962D01*
X131759775Y-101661778D01*
X131746617Y-101658000D01*
X129111225Y-101658000D01*
X129097694Y-101661973D01*
X129096257Y-101671966D01*
X129126565Y-101806446D01*
X129129645Y-101816275D01*
X129209770Y-102013603D01*
X129214413Y-102022794D01*
X129325694Y-102204388D01*
X129331777Y-102212699D01*
X129471213Y-102373667D01*
X129478580Y-102380883D01*
X129642434Y-102516916D01*
X129650881Y-102522831D01*
X129719969Y-102563203D01*
X129768693Y-102614842D01*
X129781764Y-102684625D01*
X129755033Y-102750396D01*
X129714584Y-102783752D01*
X129701607Y-102790507D01*
X129697474Y-102793610D01*
X129697471Y-102793612D01*
X129633203Y-102841866D01*
X129522965Y-102924635D01*
X129368629Y-103086138D01*
X129365715Y-103090410D01*
X129365714Y-103090411D01*
X129318049Y-103160285D01*
X129242743Y-103270680D01*
X129148688Y-103473305D01*
X129088989Y-103688570D01*
X129065251Y-103910695D01*
X129078110Y-104133715D01*
X129079247Y-104138761D01*
X129079248Y-104138767D01*
X129097408Y-104219346D01*
X129127222Y-104351639D01*
X129211266Y-104558616D01*
X129213965Y-104563020D01*
X129321556Y-104738593D01*
X129327987Y-104749088D01*
X129474250Y-104917938D01*
X129646126Y-105060632D01*
X129839000Y-105173338D01*
X130047692Y-105253030D01*
X130052760Y-105254061D01*
X130052763Y-105254062D01*
X130214806Y-105287030D01*
X130277571Y-105320211D01*
X130312433Y-105382059D01*
X130308324Y-105452937D01*
X130266547Y-105510341D01*
X130200368Y-105536046D01*
X130189685Y-105536500D01*
X126999500Y-105536500D01*
X126931379Y-105516498D01*
X126884886Y-105462842D01*
X126873500Y-105410500D01*
X126873500Y-89661500D01*
X126893502Y-89593379D01*
X126947158Y-89546886D01*
X126999500Y-89535500D01*
X158877500Y-89535500D01*
X158945621Y-89555502D01*
G37*
%TD.AperFunction*%
%TA.AperFunction,Conductor*%
G36*
X147339288Y-96874121D02*
G01*
X147371385Y-96937449D01*
X147373500Y-96960440D01*
X147373500Y-98396088D01*
X147373208Y-98404658D01*
X147369275Y-98462352D01*
X147370580Y-98469829D01*
X147370580Y-98469830D01*
X147380261Y-98525299D01*
X147381223Y-98531821D01*
X147388898Y-98595242D01*
X147391581Y-98602343D01*
X147392222Y-98604952D01*
X147396685Y-98621262D01*
X147397450Y-98623798D01*
X147398757Y-98631284D01*
X147401811Y-98638241D01*
X147424442Y-98689795D01*
X147426933Y-98695899D01*
X147449513Y-98755656D01*
X147453817Y-98761919D01*
X147455054Y-98764285D01*
X147463299Y-98779097D01*
X147464632Y-98781351D01*
X147467685Y-98788305D01*
X147504170Y-98835851D01*
X147506579Y-98838991D01*
X147510459Y-98844332D01*
X147542339Y-98890720D01*
X147542344Y-98890725D01*
X147546643Y-98896981D01*
X147552313Y-98902032D01*
X147552314Y-98902034D01*
X147593170Y-98938435D01*
X147598446Y-98943416D01*
X148271550Y-99616520D01*
X148277404Y-99622785D01*
X148315439Y-99666385D01*
X148338537Y-99682618D01*
X148367697Y-99703112D01*
X148372993Y-99707045D01*
X148423282Y-99746477D01*
X148430204Y-99749602D01*
X148432452Y-99750964D01*
X148447185Y-99759368D01*
X148449524Y-99760622D01*
X148455739Y-99764990D01*
X148462815Y-99767749D01*
X148462819Y-99767751D01*
X148515269Y-99788200D01*
X148521334Y-99790749D01*
X148579573Y-99817045D01*
X148587038Y-99818429D01*
X148589582Y-99819226D01*
X148605848Y-99823859D01*
X148608428Y-99824521D01*
X148615509Y-99827282D01*
X148623042Y-99828274D01*
X148623043Y-99828274D01*
X148655699Y-99832573D01*
X148678857Y-99835622D01*
X148685355Y-99836650D01*
X148748187Y-99848296D01*
X148755767Y-99847859D01*
X148755768Y-99847859D01*
X148810393Y-99844709D01*
X148817647Y-99844500D01*
X149562487Y-99844500D01*
X149606716Y-99852518D01*
X149693289Y-99884973D01*
X149693291Y-99884973D01*
X149700684Y-99887745D01*
X149708532Y-99888598D01*
X149708534Y-99888598D01*
X149759469Y-99894131D01*
X149762866Y-99894500D01*
X152359134Y-99894500D01*
X152421316Y-99887745D01*
X152428712Y-99884973D01*
X152428718Y-99884971D01*
X152553241Y-99838289D01*
X152624048Y-99833106D01*
X152686417Y-99867027D01*
X152720546Y-99929282D01*
X152722047Y-99937392D01*
X152727825Y-99975599D01*
X152730028Y-99981585D01*
X152730029Y-99981591D01*
X152792860Y-100152360D01*
X152792862Y-100152365D01*
X152795063Y-100158346D01*
X152846200Y-100240821D01*
X152854394Y-100254036D01*
X152897674Y-100323840D01*
X152902055Y-100328473D01*
X152902056Y-100328474D01*
X152996523Y-100428371D01*
X153031466Y-100465322D01*
X153190975Y-100577011D01*
X153196838Y-100579548D01*
X153363825Y-100651810D01*
X153363829Y-100651811D01*
X153369684Y-100654345D01*
X153375931Y-100655650D01*
X153375934Y-100655651D01*
X153555557Y-100693176D01*
X153555562Y-100693177D01*
X153560293Y-100694165D01*
X153566685Y-100694500D01*
X153709663Y-100694500D01*
X153778951Y-100687462D01*
X153848378Y-100680410D01*
X153848379Y-100680410D01*
X153854727Y-100679765D01*
X153935843Y-100654345D01*
X154034451Y-100623444D01*
X154034456Y-100623442D01*
X154040541Y-100621535D01*
X154137634Y-100567715D01*
X154205271Y-100530223D01*
X154205274Y-100530221D01*
X154210850Y-100527130D01*
X154215691Y-100522981D01*
X154215695Y-100522978D01*
X154353855Y-100404560D01*
X154358698Y-100400409D01*
X154478046Y-100246547D01*
X154503073Y-100195687D01*
X154561200Y-100077556D01*
X154564018Y-100071829D01*
X154567141Y-100059839D01*
X154611492Y-99889575D01*
X154611492Y-99889572D01*
X154613102Y-99883393D01*
X154620132Y-99749261D01*
X154622959Y-99695317D01*
X154622959Y-99695313D01*
X154623293Y-99688936D01*
X154594175Y-99496401D01*
X154591972Y-99490415D01*
X154591971Y-99490409D01*
X154529140Y-99319640D01*
X154529138Y-99319635D01*
X154526937Y-99313654D01*
X154432843Y-99161896D01*
X154413945Y-99093461D01*
X154435047Y-99025673D01*
X154489448Y-98980054D01*
X154539929Y-98969500D01*
X155545428Y-98969500D01*
X155613549Y-98989502D01*
X155634523Y-99006405D01*
X156855339Y-100227221D01*
X156889365Y-100289533D01*
X156884300Y-100360348D01*
X156841753Y-100417184D01*
X156822985Y-100426579D01*
X156816671Y-100433865D01*
X156815000Y-100441548D01*
X156815000Y-102064000D01*
X156794998Y-102132121D01*
X156741342Y-102178614D01*
X156689000Y-102190000D01*
X154821116Y-102190000D01*
X154805877Y-102194475D01*
X154804672Y-102195865D01*
X154803001Y-102203548D01*
X154803001Y-102980669D01*
X154803554Y-102990877D01*
X154802296Y-102990945D01*
X154790660Y-103055793D01*
X154742330Y-103107801D01*
X154677934Y-103125500D01*
X152944067Y-103125500D01*
X152875946Y-103105498D01*
X152829453Y-103051842D01*
X152819622Y-102990947D01*
X152818447Y-102990883D01*
X152819000Y-102980672D01*
X152819000Y-102208115D01*
X152814525Y-102192876D01*
X152813135Y-102191671D01*
X152805452Y-102190000D01*
X149321116Y-102190000D01*
X149305877Y-102194475D01*
X149304672Y-102195865D01*
X149303001Y-102203548D01*
X149303001Y-102980669D01*
X149303554Y-102990877D01*
X149302296Y-102990945D01*
X149290660Y-103055793D01*
X149242330Y-103107801D01*
X149177934Y-103125500D01*
X145101550Y-103125500D01*
X145033429Y-103105498D01*
X145012455Y-103088595D01*
X143587745Y-101663885D01*
X149303000Y-101663885D01*
X149307475Y-101679124D01*
X149308865Y-101680329D01*
X149316548Y-101682000D01*
X150788885Y-101682000D01*
X150804124Y-101677525D01*
X150805329Y-101676135D01*
X150807000Y-101668452D01*
X150807000Y-101663885D01*
X151315000Y-101663885D01*
X151319475Y-101679124D01*
X151320865Y-101680329D01*
X151328548Y-101682000D01*
X152800884Y-101682000D01*
X152816123Y-101677525D01*
X152817328Y-101676135D01*
X152818999Y-101668452D01*
X152818999Y-101663885D01*
X154803000Y-101663885D01*
X154807475Y-101679124D01*
X154808865Y-101680329D01*
X154816548Y-101682000D01*
X156288885Y-101682000D01*
X156304124Y-101677525D01*
X156305329Y-101676135D01*
X156307000Y-101668452D01*
X156307000Y-100446116D01*
X156302525Y-100430877D01*
X156301135Y-100429672D01*
X156293452Y-100428001D01*
X155266331Y-100428001D01*
X155259510Y-100428371D01*
X155208648Y-100433895D01*
X155193396Y-100437521D01*
X155072946Y-100482676D01*
X155057351Y-100491214D01*
X154955276Y-100567715D01*
X154942715Y-100580276D01*
X154866214Y-100682351D01*
X154857676Y-100697946D01*
X154812522Y-100818394D01*
X154808895Y-100833649D01*
X154803369Y-100884514D01*
X154803000Y-100891328D01*
X154803000Y-101663885D01*
X152818999Y-101663885D01*
X152818999Y-100891331D01*
X152818629Y-100884510D01*
X152813105Y-100833648D01*
X152809479Y-100818396D01*
X152764324Y-100697946D01*
X152755786Y-100682351D01*
X152679285Y-100580276D01*
X152666724Y-100567715D01*
X152564649Y-100491214D01*
X152549054Y-100482676D01*
X152428606Y-100437522D01*
X152413351Y-100433895D01*
X152362486Y-100428369D01*
X152355672Y-100428000D01*
X151333115Y-100428000D01*
X151317876Y-100432475D01*
X151316671Y-100433865D01*
X151315000Y-100441548D01*
X151315000Y-101663885D01*
X150807000Y-101663885D01*
X150807000Y-100446116D01*
X150802525Y-100430877D01*
X150801135Y-100429672D01*
X150793452Y-100428001D01*
X149766331Y-100428001D01*
X149759510Y-100428371D01*
X149708648Y-100433895D01*
X149693396Y-100437521D01*
X149572946Y-100482676D01*
X149557351Y-100491214D01*
X149455276Y-100567715D01*
X149442715Y-100580276D01*
X149366214Y-100682351D01*
X149357676Y-100697946D01*
X149312522Y-100818394D01*
X149308895Y-100833649D01*
X149303369Y-100884514D01*
X149303000Y-100891328D01*
X149303000Y-101663885D01*
X143587745Y-101663885D01*
X139860119Y-97936259D01*
X139826093Y-97873947D01*
X139831158Y-97803132D01*
X139873705Y-97746296D01*
X139940225Y-97721485D01*
X139949214Y-97721164D01*
X141458897Y-97721164D01*
X141470080Y-97721691D01*
X141477573Y-97723366D01*
X141485499Y-97723117D01*
X141485500Y-97723117D01*
X141545650Y-97721226D01*
X141549609Y-97721164D01*
X143625569Y-97721164D01*
X143636752Y-97721691D01*
X143644245Y-97723366D01*
X143652171Y-97723117D01*
X143652172Y-97723117D01*
X143712322Y-97721226D01*
X143716281Y-97721164D01*
X145300069Y-97721164D01*
X145311252Y-97721691D01*
X145318745Y-97723366D01*
X145326671Y-97723117D01*
X145326672Y-97723117D01*
X145386822Y-97721226D01*
X145390781Y-97721164D01*
X145418692Y-97721164D01*
X145422627Y-97720667D01*
X145422692Y-97720659D01*
X145434529Y-97719726D01*
X145466787Y-97718712D01*
X145470806Y-97718586D01*
X145478725Y-97718337D01*
X145498179Y-97712685D01*
X145517536Y-97708677D01*
X145529766Y-97707132D01*
X145529767Y-97707132D01*
X145537633Y-97706138D01*
X145545004Y-97703219D01*
X145545006Y-97703219D01*
X145578748Y-97689860D01*
X145589978Y-97686015D01*
X145624819Y-97675893D01*
X145624820Y-97675893D01*
X145632429Y-97673682D01*
X145639248Y-97669649D01*
X145639253Y-97669647D01*
X145649864Y-97663371D01*
X145667612Y-97654676D01*
X145686453Y-97647216D01*
X145722223Y-97621228D01*
X145732143Y-97614712D01*
X145748739Y-97604897D01*
X145770198Y-97592206D01*
X145772274Y-97590130D01*
X145836289Y-97564994D01*
X145847434Y-97564500D01*
X146423400Y-97564500D01*
X146426646Y-97564163D01*
X146426650Y-97564163D01*
X146522308Y-97554238D01*
X146522312Y-97554237D01*
X146529166Y-97553526D01*
X146535702Y-97551345D01*
X146535704Y-97551345D01*
X146689998Y-97499868D01*
X146696946Y-97497550D01*
X146847348Y-97404478D01*
X146972305Y-97279303D01*
X147015073Y-97209921D01*
X147061275Y-97134968D01*
X147061276Y-97134966D01*
X147065115Y-97128738D01*
X147116241Y-96974597D01*
X147118632Y-96967389D01*
X147118632Y-96967387D01*
X147120797Y-96960861D01*
X147122156Y-96947598D01*
X147148997Y-96881870D01*
X147207112Y-96841088D01*
X147278050Y-96838200D01*
X147339288Y-96874121D01*
G37*
%TD.AperFunction*%
%TD*%
M02*
