%FSLAX45Y45*%
G04 Gerber Fmt 4.5, Leading zero omitted, Abs format (unit mm)*
G04 Created by KiCad (PCBNEW (6.0.5)) date 2024-01-21 09:53:14*
%MOMM*%
%LPD*%
G01*
G04 APERTURE LIST*
%TA.AperFunction,Profile*%
%ADD10C,0.100000*%
%TD*%
%ADD11C,0.200000*%
%ADD12C,0.090000*%
G04 APERTURE END LIST*
D10*
X12636500Y-8902700D02*
X15951200Y-8902700D01*
X15951200Y-8902700D02*
X15951200Y-10604500D01*
X15951200Y-10604500D02*
X12636500Y-10604500D01*
X12636500Y-10604500D02*
X12636500Y-8902700D01*
D11*
D12*
X15321100Y-9488600D02*
X15411100Y-9578600D01*
X15411100Y-9488600D02*
X15321100Y-9578600D01*
X15321100Y-9928600D02*
X15411100Y-10018600D01*
X15411100Y-9928600D02*
X15321100Y-10018600D01*
D11*
X12889119Y-10919976D02*
X12889119Y-10719976D01*
X12936738Y-10719976D01*
X12965309Y-10729500D01*
X12984357Y-10748548D01*
X12993881Y-10767595D01*
X13003405Y-10805690D01*
X13003405Y-10834262D01*
X12993881Y-10872357D01*
X12984357Y-10891405D01*
X12965309Y-10910452D01*
X12936738Y-10919976D01*
X12889119Y-10919976D01*
X13089119Y-10919976D02*
X13089119Y-10786643D01*
X13089119Y-10824738D02*
X13098643Y-10805690D01*
X13108167Y-10796167D01*
X13127214Y-10786643D01*
X13146262Y-10786643D01*
X13212928Y-10919976D02*
X13212928Y-10786643D01*
X13212928Y-10719976D02*
X13203405Y-10729500D01*
X13212928Y-10739024D01*
X13222452Y-10729500D01*
X13212928Y-10719976D01*
X13212928Y-10739024D01*
X13336738Y-10919976D02*
X13317690Y-10910452D01*
X13308167Y-10891405D01*
X13308167Y-10719976D01*
X13441500Y-10919976D02*
X13422452Y-10910452D01*
X13412928Y-10891405D01*
X13412928Y-10719976D01*
X13670071Y-10919976D02*
X13670071Y-10719976D01*
X13736738Y-10862833D01*
X13803405Y-10719976D01*
X13803405Y-10919976D01*
X13984357Y-10919976D02*
X13984357Y-10815214D01*
X13974833Y-10796167D01*
X13955786Y-10786643D01*
X13917690Y-10786643D01*
X13898643Y-10796167D01*
X13984357Y-10910452D02*
X13965309Y-10919976D01*
X13917690Y-10919976D01*
X13898643Y-10910452D01*
X13889119Y-10891405D01*
X13889119Y-10872357D01*
X13898643Y-10853310D01*
X13917690Y-10843786D01*
X13965309Y-10843786D01*
X13984357Y-10834262D01*
X14079595Y-10786643D02*
X14079595Y-10986643D01*
X14079595Y-10796167D02*
X14098643Y-10786643D01*
X14136738Y-10786643D01*
X14155786Y-10796167D01*
X14165309Y-10805690D01*
X14174833Y-10824738D01*
X14174833Y-10881881D01*
X14165309Y-10900929D01*
X14155786Y-10910452D01*
X14136738Y-10919976D01*
X14098643Y-10919976D01*
X14079595Y-10910452D01*
X14260548Y-10900929D02*
X14270071Y-10910452D01*
X14260548Y-10919976D01*
X14251024Y-10910452D01*
X14260548Y-10900929D01*
X14260548Y-10919976D01*
X14260548Y-10796167D02*
X14270071Y-10805690D01*
X14260548Y-10815214D01*
X14251024Y-10805690D01*
X14260548Y-10796167D01*
X14260548Y-10815214D01*
D12*
X12541500Y-11204500D02*
X12631500Y-11294500D01*
X12631500Y-11204500D02*
X12541500Y-11294500D01*
D11*
X12927214Y-11139976D02*
X12946262Y-11139976D01*
X12965309Y-11149500D01*
X12974833Y-11159024D01*
X12984357Y-11178071D01*
X12993881Y-11216167D01*
X12993881Y-11263786D01*
X12984357Y-11301881D01*
X12974833Y-11320928D01*
X12965309Y-11330452D01*
X12946262Y-11339976D01*
X12927214Y-11339976D01*
X12908167Y-11330452D01*
X12898643Y-11320928D01*
X12889119Y-11301881D01*
X12879595Y-11263786D01*
X12879595Y-11216167D01*
X12889119Y-11178071D01*
X12898643Y-11159024D01*
X12908167Y-11149500D01*
X12927214Y-11139976D01*
X13079595Y-11320928D02*
X13089119Y-11330452D01*
X13079595Y-11339976D01*
X13070071Y-11330452D01*
X13079595Y-11320928D01*
X13079595Y-11339976D01*
X13184357Y-11339976D02*
X13222452Y-11339976D01*
X13241500Y-11330452D01*
X13251024Y-11320928D01*
X13270071Y-11292357D01*
X13279595Y-11254262D01*
X13279595Y-11178071D01*
X13270071Y-11159024D01*
X13260548Y-11149500D01*
X13241500Y-11139976D01*
X13203405Y-11139976D01*
X13184357Y-11149500D01*
X13174833Y-11159024D01*
X13165309Y-11178071D01*
X13165309Y-11225690D01*
X13174833Y-11244738D01*
X13184357Y-11254262D01*
X13203405Y-11263786D01*
X13241500Y-11263786D01*
X13260548Y-11254262D01*
X13270071Y-11244738D01*
X13279595Y-11225690D01*
X13403405Y-11139976D02*
X13422452Y-11139976D01*
X13441500Y-11149500D01*
X13451024Y-11159024D01*
X13460548Y-11178071D01*
X13470071Y-11216167D01*
X13470071Y-11263786D01*
X13460548Y-11301881D01*
X13451024Y-11320928D01*
X13441500Y-11330452D01*
X13422452Y-11339976D01*
X13403405Y-11339976D01*
X13384357Y-11330452D01*
X13374833Y-11320928D01*
X13365309Y-11301881D01*
X13355786Y-11263786D01*
X13355786Y-11216167D01*
X13365309Y-11178071D01*
X13374833Y-11159024D01*
X13384357Y-11149500D01*
X13403405Y-11139976D01*
X13593881Y-11139976D02*
X13612928Y-11139976D01*
X13631976Y-11149500D01*
X13641500Y-11159024D01*
X13651024Y-11178071D01*
X13660548Y-11216167D01*
X13660548Y-11263786D01*
X13651024Y-11301881D01*
X13641500Y-11320928D01*
X13631976Y-11330452D01*
X13612928Y-11339976D01*
X13593881Y-11339976D01*
X13574833Y-11330452D01*
X13565309Y-11320928D01*
X13555786Y-11301881D01*
X13546262Y-11263786D01*
X13546262Y-11216167D01*
X13555786Y-11178071D01*
X13565309Y-11159024D01*
X13574833Y-11149500D01*
X13593881Y-11139976D01*
X13746262Y-11339976D02*
X13746262Y-11206643D01*
X13746262Y-11225690D02*
X13755786Y-11216167D01*
X13774833Y-11206643D01*
X13803405Y-11206643D01*
X13822452Y-11216167D01*
X13831976Y-11235214D01*
X13831976Y-11339976D01*
X13831976Y-11235214D02*
X13841500Y-11216167D01*
X13860548Y-11206643D01*
X13889119Y-11206643D01*
X13908167Y-11216167D01*
X13917690Y-11235214D01*
X13917690Y-11339976D01*
X14012928Y-11339976D02*
X14012928Y-11206643D01*
X14012928Y-11225690D02*
X14022452Y-11216167D01*
X14041500Y-11206643D01*
X14070071Y-11206643D01*
X14089119Y-11216167D01*
X14098643Y-11235214D01*
X14098643Y-11339976D01*
X14098643Y-11235214D02*
X14108167Y-11216167D01*
X14127214Y-11206643D01*
X14155786Y-11206643D01*
X14174833Y-11216167D01*
X14184357Y-11235214D01*
X14184357Y-11339976D01*
X14574833Y-11130452D02*
X14403405Y-11387595D01*
X14831976Y-11139976D02*
X14851024Y-11139976D01*
X14870071Y-11149500D01*
X14879595Y-11159024D01*
X14889119Y-11178071D01*
X14898643Y-11216167D01*
X14898643Y-11263786D01*
X14889119Y-11301881D01*
X14879595Y-11320928D01*
X14870071Y-11330452D01*
X14851024Y-11339976D01*
X14831976Y-11339976D01*
X14812928Y-11330452D01*
X14803405Y-11320928D01*
X14793881Y-11301881D01*
X14784357Y-11263786D01*
X14784357Y-11216167D01*
X14793881Y-11178071D01*
X14803405Y-11159024D01*
X14812928Y-11149500D01*
X14831976Y-11139976D01*
X14984357Y-11320928D02*
X14993881Y-11330452D01*
X14984357Y-11339976D01*
X14974833Y-11330452D01*
X14984357Y-11320928D01*
X14984357Y-11339976D01*
X15117690Y-11139976D02*
X15136738Y-11139976D01*
X15155786Y-11149500D01*
X15165309Y-11159024D01*
X15174833Y-11178071D01*
X15184357Y-11216167D01*
X15184357Y-11263786D01*
X15174833Y-11301881D01*
X15165309Y-11320928D01*
X15155786Y-11330452D01*
X15136738Y-11339976D01*
X15117690Y-11339976D01*
X15098643Y-11330452D01*
X15089119Y-11320928D01*
X15079595Y-11301881D01*
X15070071Y-11263786D01*
X15070071Y-11216167D01*
X15079595Y-11178071D01*
X15089119Y-11159024D01*
X15098643Y-11149500D01*
X15117690Y-11139976D01*
X15251024Y-11139976D02*
X15374833Y-11139976D01*
X15308167Y-11216167D01*
X15336738Y-11216167D01*
X15355786Y-11225690D01*
X15365309Y-11235214D01*
X15374833Y-11254262D01*
X15374833Y-11301881D01*
X15365309Y-11320928D01*
X15355786Y-11330452D01*
X15336738Y-11339976D01*
X15279595Y-11339976D01*
X15260548Y-11330452D01*
X15251024Y-11320928D01*
X15555786Y-11139976D02*
X15460548Y-11139976D01*
X15451024Y-11235214D01*
X15460548Y-11225690D01*
X15479595Y-11216167D01*
X15527214Y-11216167D01*
X15546262Y-11225690D01*
X15555786Y-11235214D01*
X15565309Y-11254262D01*
X15565309Y-11301881D01*
X15555786Y-11320928D01*
X15546262Y-11330452D01*
X15527214Y-11339976D01*
X15479595Y-11339976D01*
X15460548Y-11330452D01*
X15451024Y-11320928D01*
X15736738Y-11206643D02*
X15736738Y-11339976D01*
X15689119Y-11130452D02*
X15641500Y-11273309D01*
X15765309Y-11273309D01*
X15831976Y-11139976D02*
X15831976Y-11178071D01*
X15908167Y-11139976D02*
X15908167Y-11178071D01*
X16203405Y-11416167D02*
X16193881Y-11406643D01*
X16174833Y-11378071D01*
X16165309Y-11359024D01*
X16155786Y-11330452D01*
X16146262Y-11282833D01*
X16146262Y-11244738D01*
X16155786Y-11197119D01*
X16165309Y-11168548D01*
X16174833Y-11149500D01*
X16193881Y-11120929D01*
X16203405Y-11111405D01*
X16270071Y-11159024D02*
X16279595Y-11149500D01*
X16298643Y-11139976D01*
X16346262Y-11139976D01*
X16365309Y-11149500D01*
X16374833Y-11159024D01*
X16384357Y-11178071D01*
X16384357Y-11197119D01*
X16374833Y-11225690D01*
X16260548Y-11339976D01*
X16384357Y-11339976D01*
X16622452Y-11339976D02*
X16622452Y-11139976D01*
X16708167Y-11339976D02*
X16708167Y-11235214D01*
X16698643Y-11216167D01*
X16679595Y-11206643D01*
X16651024Y-11206643D01*
X16631976Y-11216167D01*
X16622452Y-11225690D01*
X16831976Y-11339976D02*
X16812929Y-11330452D01*
X16803405Y-11320928D01*
X16793881Y-11301881D01*
X16793881Y-11244738D01*
X16803405Y-11225690D01*
X16812929Y-11216167D01*
X16831976Y-11206643D01*
X16860548Y-11206643D01*
X16879595Y-11216167D01*
X16889119Y-11225690D01*
X16898643Y-11244738D01*
X16898643Y-11301881D01*
X16889119Y-11320928D01*
X16879595Y-11330452D01*
X16860548Y-11339976D01*
X16831976Y-11339976D01*
X17012929Y-11339976D02*
X16993881Y-11330452D01*
X16984357Y-11311405D01*
X16984357Y-11139976D01*
X17165310Y-11330452D02*
X17146262Y-11339976D01*
X17108167Y-11339976D01*
X17089119Y-11330452D01*
X17079595Y-11311405D01*
X17079595Y-11235214D01*
X17089119Y-11216167D01*
X17108167Y-11206643D01*
X17146262Y-11206643D01*
X17165310Y-11216167D01*
X17174833Y-11235214D01*
X17174833Y-11254262D01*
X17079595Y-11273309D01*
X17251024Y-11330452D02*
X17270071Y-11339976D01*
X17308167Y-11339976D01*
X17327214Y-11330452D01*
X17336738Y-11311405D01*
X17336738Y-11301881D01*
X17327214Y-11282833D01*
X17308167Y-11273309D01*
X17279595Y-11273309D01*
X17260548Y-11263786D01*
X17251024Y-11244738D01*
X17251024Y-11235214D01*
X17260548Y-11216167D01*
X17279595Y-11206643D01*
X17308167Y-11206643D01*
X17327214Y-11216167D01*
X17403405Y-11416167D02*
X17412929Y-11406643D01*
X17431976Y-11378071D01*
X17441500Y-11359024D01*
X17451024Y-11330452D01*
X17460548Y-11282833D01*
X17460548Y-11244738D01*
X17451024Y-11197119D01*
X17441500Y-11168548D01*
X17431976Y-11149500D01*
X17412929Y-11120929D01*
X17403405Y-11111405D01*
X17765310Y-11416167D02*
X17755786Y-11406643D01*
X17736738Y-11378071D01*
X17727214Y-11359024D01*
X17717690Y-11330452D01*
X17708167Y-11282833D01*
X17708167Y-11244738D01*
X17717690Y-11197119D01*
X17727214Y-11168548D01*
X17736738Y-11149500D01*
X17755786Y-11120929D01*
X17765310Y-11111405D01*
X17841500Y-11206643D02*
X17841500Y-11339976D01*
X17841500Y-11225690D02*
X17851024Y-11216167D01*
X17870071Y-11206643D01*
X17898643Y-11206643D01*
X17917690Y-11216167D01*
X17927214Y-11235214D01*
X17927214Y-11339976D01*
X18051024Y-11339976D02*
X18031976Y-11330452D01*
X18022452Y-11320928D01*
X18012929Y-11301881D01*
X18012929Y-11244738D01*
X18022452Y-11225690D01*
X18031976Y-11216167D01*
X18051024Y-11206643D01*
X18079595Y-11206643D01*
X18098643Y-11216167D01*
X18108167Y-11225690D01*
X18117690Y-11244738D01*
X18117690Y-11301881D01*
X18108167Y-11320928D01*
X18098643Y-11330452D01*
X18079595Y-11339976D01*
X18051024Y-11339976D01*
X18174833Y-11206643D02*
X18251024Y-11206643D01*
X18203405Y-11139976D02*
X18203405Y-11311405D01*
X18212929Y-11330452D01*
X18231976Y-11339976D01*
X18251024Y-11339976D01*
X18470071Y-11206643D02*
X18470071Y-11406643D01*
X18470071Y-11216167D02*
X18489119Y-11206643D01*
X18527214Y-11206643D01*
X18546262Y-11216167D01*
X18555786Y-11225690D01*
X18565310Y-11244738D01*
X18565310Y-11301881D01*
X18555786Y-11320928D01*
X18546262Y-11330452D01*
X18527214Y-11339976D01*
X18489119Y-11339976D01*
X18470071Y-11330452D01*
X18679595Y-11339976D02*
X18660548Y-11330452D01*
X18651024Y-11311405D01*
X18651024Y-11139976D01*
X18841500Y-11339976D02*
X18841500Y-11235214D01*
X18831976Y-11216167D01*
X18812929Y-11206643D01*
X18774833Y-11206643D01*
X18755786Y-11216167D01*
X18841500Y-11330452D02*
X18822452Y-11339976D01*
X18774833Y-11339976D01*
X18755786Y-11330452D01*
X18746262Y-11311405D01*
X18746262Y-11292357D01*
X18755786Y-11273309D01*
X18774833Y-11263786D01*
X18822452Y-11263786D01*
X18841500Y-11254262D01*
X18908167Y-11206643D02*
X18984357Y-11206643D01*
X18936738Y-11139976D02*
X18936738Y-11311405D01*
X18946262Y-11330452D01*
X18965310Y-11339976D01*
X18984357Y-11339976D01*
X19127214Y-11330452D02*
X19108167Y-11339976D01*
X19070071Y-11339976D01*
X19051024Y-11330452D01*
X19041500Y-11311405D01*
X19041500Y-11235214D01*
X19051024Y-11216167D01*
X19070071Y-11206643D01*
X19108167Y-11206643D01*
X19127214Y-11216167D01*
X19136738Y-11235214D01*
X19136738Y-11254262D01*
X19041500Y-11273309D01*
X19308167Y-11339976D02*
X19308167Y-11139976D01*
X19308167Y-11330452D02*
X19289119Y-11339976D01*
X19251024Y-11339976D01*
X19231976Y-11330452D01*
X19222452Y-11320928D01*
X19212929Y-11301881D01*
X19212929Y-11244738D01*
X19222452Y-11225690D01*
X19231976Y-11216167D01*
X19251024Y-11206643D01*
X19289119Y-11206643D01*
X19308167Y-11216167D01*
X19384357Y-11416167D02*
X19393881Y-11406643D01*
X19412929Y-11378071D01*
X19422452Y-11359024D01*
X19431976Y-11330452D01*
X19441500Y-11282833D01*
X19441500Y-11244738D01*
X19431976Y-11197119D01*
X19422452Y-11168548D01*
X19412929Y-11149500D01*
X19393881Y-11120929D01*
X19384357Y-11111405D01*
M02*
