%TF.GenerationSoftware,KiCad,Pcbnew,(6.0.5)*%
%TF.CreationDate,2024-01-21T09:52:01+01:00*%
%TF.ProjectId,pmod_usb_serial,706d6f64-5f75-4736-925f-73657269616c,rev?*%
%TF.SameCoordinates,Original*%
%TF.FileFunction,Legend,Top*%
%TF.FilePolarity,Positive*%
%FSLAX46Y46*%
G04 Gerber Fmt 4.6, Leading zero omitted, Abs format (unit mm)*
G04 Created by KiCad (PCBNEW (6.0.5)) date 2024-01-21 09:52:01*
%MOMM*%
%LPD*%
G01*
G04 APERTURE LIST*
G04 Aperture macros list*
%AMRoundRect*
0 Rectangle with rounded corners*
0 $1 Rounding radius*
0 $2 $3 $4 $5 $6 $7 $8 $9 X,Y pos of 4 corners*
0 Add a 4 corners polygon primitive as box body*
4,1,4,$2,$3,$4,$5,$6,$7,$8,$9,$2,$3,0*
0 Add four circle primitives for the rounded corners*
1,1,$1+$1,$2,$3*
1,1,$1+$1,$4,$5*
1,1,$1+$1,$6,$7*
1,1,$1+$1,$8,$9*
0 Add four rect primitives between the rounded corners*
20,1,$1+$1,$2,$3,$4,$5,0*
20,1,$1+$1,$4,$5,$6,$7,0*
20,1,$1+$1,$6,$7,$8,$9,0*
20,1,$1+$1,$8,$9,$2,$3,0*%
G04 Aperture macros list end*
%ADD10C,0.150000*%
%ADD11C,0.120000*%
%ADD12RoundRect,0.250000X0.262500X0.450000X-0.262500X0.450000X-0.262500X-0.450000X0.262500X-0.450000X0*%
%ADD13RoundRect,0.062500X0.062500X-0.337500X0.062500X0.337500X-0.062500X0.337500X-0.062500X-0.337500X0*%
%ADD14RoundRect,0.062500X0.337500X-0.062500X0.337500X0.062500X-0.337500X0.062500X-0.337500X-0.062500X0*%
%ADD15R,3.350000X3.350000*%
%ADD16C,0.900000*%
%ADD17R,2.500000X0.500000*%
%ADD18R,2.500000X2.000000*%
%ADD19RoundRect,0.250000X0.475000X-0.250000X0.475000X0.250000X-0.475000X0.250000X-0.475000X-0.250000X0*%
%ADD20RoundRect,0.250000X-0.450000X0.262500X-0.450000X-0.262500X0.450000X-0.262500X0.450000X0.262500X0*%
%ADD21R,1.700000X1.700000*%
%ADD22O,1.700000X1.700000*%
%ADD23RoundRect,0.250000X0.450000X-0.262500X0.450000X0.262500X-0.450000X0.262500X-0.450000X-0.262500X0*%
%ADD24RoundRect,0.243750X0.243750X0.456250X-0.243750X0.456250X-0.243750X-0.456250X0.243750X-0.456250X0*%
%ADD25RoundRect,0.250000X-0.475000X0.250000X-0.475000X-0.250000X0.475000X-0.250000X0.475000X0.250000X0*%
G04 APERTURE END LIST*
D10*
%TO.C,R3*%
X134834333Y-102814380D02*
X134501000Y-102338190D01*
X134262904Y-102814380D02*
X134262904Y-101814380D01*
X134643857Y-101814380D01*
X134739095Y-101862000D01*
X134786714Y-101909619D01*
X134834333Y-102004857D01*
X134834333Y-102147714D01*
X134786714Y-102242952D01*
X134739095Y-102290571D01*
X134643857Y-102338190D01*
X134262904Y-102338190D01*
X135167666Y-101814380D02*
X135786714Y-101814380D01*
X135453380Y-102195333D01*
X135596238Y-102195333D01*
X135691476Y-102242952D01*
X135739095Y-102290571D01*
X135786714Y-102385809D01*
X135786714Y-102623904D01*
X135739095Y-102719142D01*
X135691476Y-102766761D01*
X135596238Y-102814380D01*
X135310523Y-102814380D01*
X135215285Y-102766761D01*
X135167666Y-102719142D01*
%TO.C,U1*%
X132802380Y-92201904D02*
X133611904Y-92201904D01*
X133707142Y-92154285D01*
X133754761Y-92106666D01*
X133802380Y-92011428D01*
X133802380Y-91820952D01*
X133754761Y-91725714D01*
X133707142Y-91678095D01*
X133611904Y-91630476D01*
X132802380Y-91630476D01*
X133802380Y-90630476D02*
X133802380Y-91201904D01*
X133802380Y-90916190D02*
X132802380Y-90916190D01*
X132945238Y-91011428D01*
X133040476Y-91106666D01*
X133088095Y-91201904D01*
%TO.C,J1*%
X153463666Y-91019380D02*
X153463666Y-91733666D01*
X153416047Y-91876523D01*
X153320809Y-91971761D01*
X153177952Y-92019380D01*
X153082714Y-92019380D01*
X154463666Y-92019380D02*
X153892238Y-92019380D01*
X154177952Y-92019380D02*
X154177952Y-91019380D01*
X154082714Y-91162238D01*
X153987476Y-91257476D01*
X153892238Y-91305095D01*
%TO.C,C2*%
X144121142Y-98591666D02*
X144168761Y-98639285D01*
X144216380Y-98782142D01*
X144216380Y-98877380D01*
X144168761Y-99020238D01*
X144073523Y-99115476D01*
X143978285Y-99163095D01*
X143787809Y-99210714D01*
X143644952Y-99210714D01*
X143454476Y-99163095D01*
X143359238Y-99115476D01*
X143264000Y-99020238D01*
X143216380Y-98877380D01*
X143216380Y-98782142D01*
X143264000Y-98639285D01*
X143311619Y-98591666D01*
X143311619Y-98210714D02*
X143264000Y-98163095D01*
X143216380Y-98067857D01*
X143216380Y-97829761D01*
X143264000Y-97734523D01*
X143311619Y-97686904D01*
X143406857Y-97639285D01*
X143502095Y-97639285D01*
X143644952Y-97686904D01*
X144216380Y-98258333D01*
X144216380Y-97639285D01*
%TO.C,R1*%
X146375380Y-98464666D02*
X145899190Y-98798000D01*
X146375380Y-99036095D02*
X145375380Y-99036095D01*
X145375380Y-98655142D01*
X145423000Y-98559904D01*
X145470619Y-98512285D01*
X145565857Y-98464666D01*
X145708714Y-98464666D01*
X145803952Y-98512285D01*
X145851571Y-98559904D01*
X145899190Y-98655142D01*
X145899190Y-99036095D01*
X146375380Y-97512285D02*
X146375380Y-98083714D01*
X146375380Y-97798000D02*
X145375380Y-97798000D01*
X145518238Y-97893238D01*
X145613476Y-97988476D01*
X145661095Y-98083714D01*
%TO.C,PMOD1*%
X133675380Y-100631333D02*
X132675380Y-100631333D01*
X132675380Y-100250380D01*
X132723000Y-100155142D01*
X132770619Y-100107523D01*
X132865857Y-100059904D01*
X133008714Y-100059904D01*
X133103952Y-100107523D01*
X133151571Y-100155142D01*
X133199190Y-100250380D01*
X133199190Y-100631333D01*
X133675380Y-99631333D02*
X132675380Y-99631333D01*
X133389666Y-99298000D01*
X132675380Y-98964666D01*
X133675380Y-98964666D01*
X132675380Y-98298000D02*
X132675380Y-98107523D01*
X132723000Y-98012285D01*
X132818238Y-97917047D01*
X133008714Y-97869428D01*
X133342047Y-97869428D01*
X133532523Y-97917047D01*
X133627761Y-98012285D01*
X133675380Y-98107523D01*
X133675380Y-98298000D01*
X133627761Y-98393238D01*
X133532523Y-98488476D01*
X133342047Y-98536095D01*
X133008714Y-98536095D01*
X132818238Y-98488476D01*
X132723000Y-98393238D01*
X132675380Y-98298000D01*
X133675380Y-97440857D02*
X132675380Y-97440857D01*
X132675380Y-97202761D01*
X132723000Y-97059904D01*
X132818238Y-96964666D01*
X132913476Y-96917047D01*
X133103952Y-96869428D01*
X133246809Y-96869428D01*
X133437285Y-96917047D01*
X133532523Y-96964666D01*
X133627761Y-97059904D01*
X133675380Y-97202761D01*
X133675380Y-97440857D01*
X133675380Y-95917047D02*
X133675380Y-96488476D01*
X133675380Y-96202761D02*
X132675380Y-96202761D01*
X132818238Y-96298000D01*
X132913476Y-96393238D01*
X132961095Y-96488476D01*
%TO.C,R2*%
X142057380Y-98591666D02*
X141581190Y-98925000D01*
X142057380Y-99163095D02*
X141057380Y-99163095D01*
X141057380Y-98782142D01*
X141105000Y-98686904D01*
X141152619Y-98639285D01*
X141247857Y-98591666D01*
X141390714Y-98591666D01*
X141485952Y-98639285D01*
X141533571Y-98686904D01*
X141581190Y-98782142D01*
X141581190Y-99163095D01*
X141152619Y-98210714D02*
X141105000Y-98163095D01*
X141057380Y-98067857D01*
X141057380Y-97829761D01*
X141105000Y-97734523D01*
X141152619Y-97686904D01*
X141247857Y-97639285D01*
X141343095Y-97639285D01*
X141485952Y-97686904D01*
X142057380Y-98258333D01*
X142057380Y-97639285D01*
%TO.C,D2*%
X138199904Y-102687380D02*
X138199904Y-101687380D01*
X138438000Y-101687380D01*
X138580857Y-101735000D01*
X138676095Y-101830238D01*
X138723714Y-101925476D01*
X138771333Y-102115952D01*
X138771333Y-102258809D01*
X138723714Y-102449285D01*
X138676095Y-102544523D01*
X138580857Y-102639761D01*
X138438000Y-102687380D01*
X138199904Y-102687380D01*
X139152285Y-101782619D02*
X139199904Y-101735000D01*
X139295142Y-101687380D01*
X139533238Y-101687380D01*
X139628476Y-101735000D01*
X139676095Y-101782619D01*
X139723714Y-101877857D01*
X139723714Y-101973095D01*
X139676095Y-102115952D01*
X139104666Y-102687380D01*
X139723714Y-102687380D01*
%TO.C,C1*%
X148439142Y-97448666D02*
X148486761Y-97496285D01*
X148534380Y-97639142D01*
X148534380Y-97734380D01*
X148486761Y-97877238D01*
X148391523Y-97972476D01*
X148296285Y-98020095D01*
X148105809Y-98067714D01*
X147962952Y-98067714D01*
X147772476Y-98020095D01*
X147677238Y-97972476D01*
X147582000Y-97877238D01*
X147534380Y-97734380D01*
X147534380Y-97639142D01*
X147582000Y-97496285D01*
X147629619Y-97448666D01*
X148534380Y-96496285D02*
X148534380Y-97067714D01*
X148534380Y-96782000D02*
X147534380Y-96782000D01*
X147677238Y-96877238D01*
X147772476Y-96972476D01*
X147820095Y-97067714D01*
%TO.C,D1*%
X144041904Y-92273380D02*
X144041904Y-91273380D01*
X144280000Y-91273380D01*
X144422857Y-91321000D01*
X144518095Y-91416238D01*
X144565714Y-91511476D01*
X144613333Y-91701952D01*
X144613333Y-91844809D01*
X144565714Y-92035285D01*
X144518095Y-92130523D01*
X144422857Y-92225761D01*
X144280000Y-92273380D01*
X144041904Y-92273380D01*
X145565714Y-92273380D02*
X144994285Y-92273380D01*
X145280000Y-92273380D02*
X145280000Y-91273380D01*
X145184761Y-91416238D01*
X145089523Y-91511476D01*
X144994285Y-91559095D01*
D11*
%TO.C,R3*%
X135228064Y-103151000D02*
X134773936Y-103151000D01*
X135228064Y-104621000D02*
X134773936Y-104621000D01*
%TO.C,U1*%
X134550000Y-90989000D02*
X135275000Y-90989000D01*
X139770000Y-91714000D02*
X139770000Y-90989000D01*
X139770000Y-96209000D02*
X139045000Y-96209000D01*
X134550000Y-95484000D02*
X134550000Y-96209000D01*
X139770000Y-90989000D02*
X139045000Y-90989000D01*
X134550000Y-91714000D02*
X134550000Y-90989000D01*
X139770000Y-95484000D02*
X139770000Y-96209000D01*
%TO.C,J1*%
X155111000Y-101496000D02*
X152511000Y-101496000D01*
X150201000Y-95486000D02*
X150201000Y-94336000D01*
X149611000Y-99586000D02*
X149611000Y-98886000D01*
X150201000Y-99586000D02*
X149611000Y-99586000D01*
X152511000Y-93576000D02*
X155111000Y-93576000D01*
X159671000Y-93576000D02*
X158011000Y-93576000D01*
X159671000Y-101496000D02*
X159671000Y-93576000D01*
X158011000Y-101496000D02*
X159671000Y-101496000D01*
X150201000Y-100736000D02*
X150201000Y-99586000D01*
%TO.C,C2*%
X143029000Y-95892252D02*
X143029000Y-95369748D01*
X144499000Y-95892252D02*
X144499000Y-95369748D01*
%TO.C,R1*%
X146658000Y-95403936D02*
X146658000Y-95858064D01*
X145188000Y-95403936D02*
X145188000Y-95858064D01*
%TO.C,PMOD1*%
X126328000Y-91524000D02*
X120328000Y-91524000D01*
X120328000Y-91624000D02*
X126328000Y-91624000D01*
X126328000Y-93404000D02*
X120328000Y-93404000D01*
X120328000Y-98484000D02*
X120328000Y-99244000D01*
X126328000Y-91164000D02*
X120328000Y-91164000D01*
X126328000Y-90924000D02*
X120328000Y-90924000D01*
X126328000Y-91284000D02*
X120328000Y-91284000D01*
X120328000Y-93404000D02*
X120328000Y-94164000D01*
X129385071Y-101024000D02*
X128988000Y-101024000D01*
X129385071Y-96704000D02*
X128988000Y-96704000D01*
X126328000Y-89914000D02*
X128988000Y-89914000D01*
X126328000Y-101024000D02*
X120328000Y-101024000D01*
X128988000Y-102674000D02*
X126328000Y-102674000D01*
X128988000Y-100134000D02*
X126328000Y-100134000D01*
X126328000Y-95944000D02*
X120328000Y-95944000D01*
X129318000Y-91624000D02*
X128988000Y-91624000D01*
X126328000Y-98484000D02*
X120328000Y-98484000D01*
X120328000Y-96704000D02*
X126328000Y-96704000D01*
X120328000Y-103564000D02*
X120328000Y-104324000D01*
X126328000Y-105274000D02*
X126328000Y-89914000D01*
X131698000Y-89974000D02*
X130428000Y-89974000D01*
X129385071Y-93404000D02*
X128988000Y-93404000D01*
X129385071Y-94164000D02*
X128988000Y-94164000D01*
X126328000Y-91404000D02*
X120328000Y-91404000D01*
X120328000Y-95944000D02*
X120328000Y-96704000D01*
X120328000Y-99244000D02*
X126328000Y-99244000D01*
X129385071Y-95944000D02*
X128988000Y-95944000D01*
X120328000Y-101784000D02*
X126328000Y-101784000D01*
X129385071Y-99244000D02*
X128988000Y-99244000D01*
X129385071Y-101784000D02*
X128988000Y-101784000D01*
X126328000Y-91044000D02*
X120328000Y-91044000D01*
X120328000Y-101024000D02*
X120328000Y-101784000D01*
X128988000Y-92514000D02*
X126328000Y-92514000D01*
X129318000Y-90864000D02*
X128988000Y-90864000D01*
X120328000Y-94164000D02*
X126328000Y-94164000D01*
X120328000Y-104324000D02*
X126328000Y-104324000D01*
X129385071Y-98484000D02*
X128988000Y-98484000D01*
X128988000Y-105274000D02*
X126328000Y-105274000D01*
X131698000Y-91244000D02*
X131698000Y-89974000D01*
X126328000Y-90864000D02*
X120328000Y-90864000D01*
X120328000Y-90864000D02*
X120328000Y-91624000D01*
X128988000Y-89914000D02*
X128988000Y-105274000D01*
X126328000Y-103564000D02*
X120328000Y-103564000D01*
X128988000Y-97594000D02*
X126328000Y-97594000D01*
X129385071Y-103564000D02*
X128988000Y-103564000D01*
X128988000Y-95054000D02*
X126328000Y-95054000D01*
X129385071Y-104324000D02*
X128988000Y-104324000D01*
%TO.C,R2*%
X142340000Y-95858064D02*
X142340000Y-95403936D01*
X140870000Y-95858064D02*
X140870000Y-95403936D01*
%TO.C,D2*%
X140623000Y-102926000D02*
X137938000Y-102926000D01*
X140623000Y-104846000D02*
X140623000Y-102926000D01*
X137938000Y-104846000D02*
X140623000Y-104846000D01*
%TO.C,C1*%
X148817000Y-94480748D02*
X148817000Y-95003252D01*
X147347000Y-94480748D02*
X147347000Y-95003252D01*
%TO.C,D1*%
X146193000Y-92781000D02*
X148878000Y-92781000D01*
X148878000Y-90861000D02*
X146193000Y-90861000D01*
X148878000Y-92781000D02*
X148878000Y-90861000D01*
%TD*%
%LPC*%
D12*
%TO.C,R3*%
X135913500Y-103886000D03*
X134088500Y-103886000D03*
%TD*%
D13*
%TO.C,U1*%
X135660000Y-96049000D03*
X136160000Y-96049000D03*
X136660000Y-96049000D03*
X137160000Y-96049000D03*
X137660000Y-96049000D03*
X138160000Y-96049000D03*
X138660000Y-96049000D03*
D14*
X139610000Y-95099000D03*
X139610000Y-94599000D03*
X139610000Y-94099000D03*
X139610000Y-93599000D03*
X139610000Y-93099000D03*
X139610000Y-92599000D03*
X139610000Y-92099000D03*
D13*
X138660000Y-91149000D03*
X138160000Y-91149000D03*
X137660000Y-91149000D03*
X137160000Y-91149000D03*
X136660000Y-91149000D03*
X136160000Y-91149000D03*
X135660000Y-91149000D03*
D14*
X134710000Y-92099000D03*
X134710000Y-92599000D03*
X134710000Y-93099000D03*
X134710000Y-93599000D03*
X134710000Y-94099000D03*
X134710000Y-94599000D03*
X134710000Y-95099000D03*
D15*
X137160000Y-93599000D03*
%TD*%
D16*
%TO.C,J1*%
X153661000Y-99736000D03*
X153661000Y-95336000D03*
D17*
X151061000Y-99136000D03*
X151061000Y-98336000D03*
X151061000Y-97536000D03*
X151061000Y-96736000D03*
X151061000Y-95936000D03*
D18*
X151061000Y-101936000D03*
X151061000Y-93136000D03*
X156561000Y-93136000D03*
X156561000Y-101936000D03*
%TD*%
D19*
%TO.C,C2*%
X143764000Y-96581000D03*
X143764000Y-94681000D03*
%TD*%
D20*
%TO.C,R1*%
X145923000Y-94718500D03*
X145923000Y-96543500D03*
%TD*%
D21*
%TO.C,PMOD1*%
X130428000Y-91244000D03*
D22*
X130428000Y-93784000D03*
X130428000Y-96324000D03*
X130428000Y-98864000D03*
X130428000Y-101404000D03*
X130428000Y-103944000D03*
%TD*%
D23*
%TO.C,R2*%
X141605000Y-96543500D03*
X141605000Y-94718500D03*
%TD*%
D24*
%TO.C,D2*%
X139875500Y-103886000D03*
X138000500Y-103886000D03*
%TD*%
D25*
%TO.C,C1*%
X148082000Y-93792000D03*
X148082000Y-95692000D03*
%TD*%
D24*
%TO.C,D1*%
X148130500Y-91821000D03*
X146255500Y-91821000D03*
%TD*%
M02*
